<?xml version="1.0" encoding="UTF-8" standalone="no"?>
<!DOCTYPE svg PUBLIC "-//W3C//DTD SVG 1.1//EN" "http://www.w3.org/Graphics/SVG/1.1/DTD/svg11.dtd">
<svg width="100%" height="100%" viewBox="0 0 538 97" version="1.1" xmlns="http://www.w3.org/2000/svg" xmlns:xlink="http://www.w3.org/1999/xlink" xml:space="preserve" xmlns:serif="http://www.serif.com/" style="fill-rule:evenodd;clip-rule:evenodd;stroke-linejoin:round;stroke-miterlimit:2;">
    <g transform="matrix(1,0,0,1,-627,-64)">
        <g transform="matrix(1,0,0,1.00854,624.915,61.7946)">
            <path d="M107.161,13.012C107.161,7.14 102.401,2.379 96.529,2.379C90.657,2.379 85.895,7.14 85.895,13.012C85.895,18.885 90.657,23.646 96.529,23.646C102.401,23.646 107.161,18.886 107.161,13.012ZM155.269,93.682L117.489,32.817L117.488,33L117.488,32.817L103.225,32.817L103.225,93.682L117.488,93.682L117.488,93.673L117.493,93.682L134.013,83.479L140.312,93.682L155.269,93.682ZM117.488,81.439L117.488,56.7L128.539,74.613L117.488,81.439ZM89.122,32.817L89.122,93.682L74.888,93.682L52.37,57.162L51.982,56.518L51.982,71.119C51.982,76.911 51.186,83.209 47.928,87.046C42.86,93.273 33.52,94.503 26.933,94.503C2.245,94.503 2.172,79.155 2.172,70.611L2.172,32.817L16.869,32.817L16.869,63.979C16.869,74.739 17.087,77.634 18.535,79.806C20.489,82.702 23.893,84.078 27.44,84.078C36.633,84.078 37.864,76.62 37.864,71.408L37.864,62.601L37.864,32.817L52.093,32.817L75.127,70.979L75.127,32.817L89.122,32.817Z" style="fill:rgb(101,123,131);fill-rule:nonzero;"/>
        </g>
        <g transform="matrix(1,0,0,1.00854,624.915,61.7946)">
            <path d="M182.543,33.489L182.543,40.653C182.543,44.823 180.832,47.71 176.02,47.71C171.529,47.71 169.562,45.337 169.626,42.043L169.626,33.489L167.531,33.125L167.531,32.398L173.818,32.398L173.818,33.125L171.722,33.489L171.722,41.252C171.658,44.438 172.92,46.534 176.192,46.534C177.261,46.534 178.972,46.127 179.998,44.866C180.832,43.861 180.832,41.978 180.832,40.824L180.832,33.489L178.737,33.125L178.737,32.398L184.639,32.398L184.639,33.125L182.543,33.489Z" style="fill:rgb(101,123,131);fill-rule:nonzero;"/>
        </g>
        <g transform="matrix(1,0,0,1.00854,624.915,61.7946)">
            <path d="M188.346,46.32L190.163,46.684L190.163,47.325L184.71,47.325L184.71,46.684L186.528,46.32L186.528,38.771C185.951,38.494 185.287,38.386 184.667,38.386L184.667,37.745C185.694,37.616 186.977,37.274 187.854,36.889L188.346,37.039L188.346,38.643C189.372,37.894 190.377,37.167 190.634,37.06C190.848,36.975 191.211,36.889 191.425,36.889C194.269,36.889 195.082,38.13 195.082,40.247L195.082,46.32L196.9,46.684L196.9,47.325L191.447,47.325L191.447,46.684L193.264,46.32L193.264,41.957C193.264,40.204 193.328,38.3 191.104,38.3C190.099,38.3 189.158,38.707 188.345,39.284L188.346,46.32Z" style="fill:rgb(101,123,131);fill-rule:nonzero;"/>
        </g>
        <g transform="matrix(1,0,0,1.00854,624.915,61.7946)">
            <path d="M198.067,47.325L198.067,46.683L200.163,46.319L200.163,38.771C199.585,38.494 198.922,38.386 198.302,38.386L198.302,37.745C199.329,37.616 200.612,37.274 201.488,36.889L201.98,37.039L201.98,46.32L204.076,46.684L204.076,47.325L198.067,47.325ZM200.955,34.366C200.42,34.366 199.907,33.895 199.907,33.361C199.907,32.805 200.356,32.227 200.955,32.227C201.575,32.227 202.045,32.761 202.045,33.361C202.045,33.938 201.51,34.366 200.955,34.366Z" style="fill:rgb(101,123,131);fill-rule:nonzero;"/>
        </g>
        <g transform="matrix(1,0,0,1.00854,624.915,61.7946)">
            <path d="M209.278,37.124L209.278,37.766L207.524,38.13L210.133,44.973L212.785,38.13L211.053,37.766L211.053,37.124L215.308,37.124L215.308,37.766L213.961,38.13L210.133,47.561L209.278,47.561L205.45,38.13L203.995,37.766L203.995,37.124L209.278,37.124Z" style="fill:rgb(101,123,131);fill-rule:nonzero;"/>
        </g>
        <g transform="matrix(1,0,0,1.00854,624.915,61.7946)">
            <path d="M217.617,41.038C217.617,43.839 218.707,46.148 221.488,46.148C222.792,46.148 223.819,45.208 224.653,44.331L225.123,44.802L222.621,47.325C222.471,47.411 221.701,47.561 220.611,47.561C217.959,47.561 215.864,45.657 215.864,42.193C215.864,38.792 217.981,36.889 220.611,36.889C222.835,36.889 224.504,38.386 224.504,40.182C224.504,40.995 224.29,41.038 223.648,41.038L217.617,41.038ZM222.642,40.396C222.728,38.813 222.022,37.53 220.289,37.53C218.728,37.53 217.766,38.985 217.659,40.396L222.642,40.396Z" style="fill:rgb(101,123,131);fill-rule:nonzero;"/>
        </g>
        <g transform="matrix(1,0,0,1.00854,624.915,61.7946)">
            <path d="M229.385,37.039L229.385,39.712L229.77,39.113C230.241,38.236 231.118,36.804 232.251,36.804C232.7,36.804 232.935,36.975 233.278,37.231L233,38.899L232.722,38.963C232.487,38.792 231.995,38.557 231.717,38.557C230.477,38.557 229.386,40.717 229.386,41.102L229.386,46.319L231.632,46.683L231.632,47.325L225.601,47.325L225.601,46.683L227.568,46.319L227.568,38.771C226.991,38.494 226.328,38.386 225.708,38.386L225.708,37.745C226.735,37.616 228.017,37.274 228.894,36.889L229.385,37.039Z" style="fill:rgb(101,123,131);fill-rule:nonzero;"/>
        </g>
        <g transform="matrix(1,0,0,1.00854,624.915,61.7946)">
            <path d="M240.974,40.161L240.225,40.161C240.225,38.791 239.499,37.659 238.001,37.659C236.911,37.659 235.97,38.172 235.97,39.348C235.97,41.701 241.744,40.417 241.744,44.182C241.744,46.448 239.776,47.56 237.702,47.56C236.611,47.56 235.499,47.346 234.516,46.854L234.217,43.903L235.05,43.903C235.093,45.55 236.098,46.791 237.809,46.791C238.985,46.791 240.14,46.235 240.14,44.952C240.14,42.193 234.452,43.797 234.452,39.883C234.452,38.002 236.184,36.889 237.959,36.889C239.114,36.889 240.119,37.167 241.017,37.894L240.974,40.161Z" style="fill:rgb(101,123,131);fill-rule:nonzero;"/>
        </g>
        <g transform="matrix(1,0,0,1.00854,624.915,61.7946)">
            <path d="M242.751,47.325L242.751,46.683L244.847,46.319L244.847,38.771C244.269,38.494 243.607,38.386 242.987,38.386L242.987,37.745C244.013,37.616 245.296,37.274 246.173,36.889L246.665,37.039L246.665,46.32L248.761,46.684L248.761,47.325L242.751,47.325ZM245.638,34.366C245.104,34.366 244.591,33.895 244.591,33.361C244.591,32.805 245.04,32.227 245.638,32.227C246.258,32.227 246.729,32.761 246.729,33.361C246.729,33.938 246.194,34.366 245.638,34.366Z" style="fill:rgb(101,123,131);fill-rule:nonzero;"/>
        </g>
        <g transform="matrix(1,0,0,1.00854,624.915,61.7946)">
            <path d="M249.098,38.129C250.467,37.573 251.536,36.183 251.943,34.708L252.455,34.708L252.455,37.702L255.663,37.702L255.663,38.771L252.455,38.771L252.455,43.968C252.412,45.486 252.926,46.192 254.166,46.214C254.807,46.214 255.32,45.764 255.812,45.294L256.112,45.807L254.828,47.111C254.38,47.561 253.695,47.496 253.119,47.496C251.9,47.496 250.638,46.876 250.638,44.823L250.638,38.771L249.098,38.771L249.098,38.129Z" style="fill:rgb(101,123,131);fill-rule:nonzero;"/>
        </g>
        <g transform="matrix(1,0,0,1.00854,624.915,61.7946)">
            <path d="M263.32,40.161C263.32,38.514 262.785,38.022 261.823,38.022C260.433,38.022 259.941,39.219 260.006,40.332C260.027,40.589 259.835,40.567 259.641,40.609L258.359,40.866L258.209,40.78L258.294,39.433C258.316,39.069 259.214,38.577 259.47,38.428L261.993,36.995C262.229,36.867 262.506,36.888 262.764,36.888C264.132,36.888 265.137,37.637 265.137,39.519L265.137,45.763L266.89,46.127L266.89,46.64C265.8,46.833 264.538,47.153 263.383,47.56L263.233,47.389L263.297,46.02C262.228,46.833 261.051,47.56 259.662,47.56C258.1,47.56 257.416,46.277 257.416,45.443C257.416,43.667 258.785,43.197 259.747,42.898C261.03,42.492 262.228,42.043 263.318,41.722L263.318,40.161L263.32,40.161ZM260.069,32.868C260.668,32.868 261.181,33.382 261.181,33.981C261.181,34.58 260.668,35.071 260.069,35.071C259.47,35.071 258.978,34.58 258.978,33.981C258.978,33.382 259.47,32.868 260.069,32.868ZM263.32,42.299C261.352,43.283 259.341,43.603 259.341,45.1C259.341,45.87 260.048,46.362 260.903,46.362C261.566,46.362 262.635,45.828 263.32,45.422L263.32,42.299ZM263.79,35.071C263.191,35.071 262.656,34.58 262.656,33.981C262.656,33.382 263.191,32.868 263.79,32.868C264.389,32.868 264.859,33.403 264.859,33.981C264.859,34.558 264.367,35.071 263.79,35.071Z" style="fill:rgb(101,123,131);fill-rule:nonzero;"/>
        </g>
        <g transform="matrix(1,0,0,1.00854,624.915,61.7946)">
            <path d="M267.259,38.129C268.628,37.573 269.698,36.183 270.103,34.708L270.617,34.708L270.617,37.702L273.825,37.702L273.825,38.771L270.617,38.771L270.617,43.968C270.574,45.486 271.087,46.192 272.327,46.214C272.968,46.214 273.482,45.764 273.974,45.294L274.273,45.807L272.99,47.111C272.541,47.561 271.857,47.496 271.279,47.496C270.06,47.496 268.799,46.876 268.799,44.823L268.799,38.771L267.259,38.771L267.259,38.129Z" style="fill:rgb(101,123,131);fill-rule:nonzero;"/>
        </g>
        <g transform="matrix(1,0,0,1.00854,624.915,61.7946)">
            <path d="M285.822,41.786L284.239,46.234L286.335,46.598L286.335,47.324L280.989,47.324L280.989,46.598L282.806,46.234L288.388,32.077L289.478,32.077L295.358,46.234L297.176,46.598L297.176,47.324L290.995,47.324L290.995,46.598L293.091,46.234L291.253,41.786L285.822,41.786ZM286.25,40.717L290.805,40.717L288.431,34.964L286.25,40.717Z" style="fill:rgb(101,123,131);fill-rule:nonzero;"/>
        </g>
        <g transform="matrix(1,0,0,1.00854,624.915,61.7946)">
            <path d="M305.681,38.129L303.692,37.766L303.692,37.124L307.498,37.124L307.498,45.785L309.359,46.042L309.359,46.577C308.161,46.791 307.005,47.154 305.873,47.518L305.681,47.325L305.681,45.743C304.354,46.555 303.392,47.56 302.023,47.56C300.12,47.56 298.88,46.726 298.88,44.716L298.88,38.129L297.063,37.766L297.063,37.124L300.698,37.124L300.698,44.245C300.698,45.464 301.512,46.148 302.816,46.148C303.991,46.148 304.698,45.699 305.682,45.122L305.681,38.129Z" style="fill:rgb(101,123,131);fill-rule:nonzero;"/>
        </g>
        <g transform="matrix(1,0,0,1.00854,624.915,61.7946)">
            <path d="M312.818,46.705C311.812,46.32 310.806,45.335 311.256,44.181L313.201,43.261C311.812,42.897 310.914,41.743 310.914,40.289C310.914,38.022 312.497,36.888 314.678,36.888C315.491,36.888 316.303,37.145 317.072,37.38L317.628,37.38L319.788,37.273C319.766,37.188 320.345,38.172 319.511,38.492C319.254,38.599 318.291,38.407 317.671,38.257C318.078,38.813 318.249,39.369 318.249,40.032C318.249,42.298 316.218,43.561 314.123,43.411L313.716,43.625L312.861,44.159C312.925,45.549 315.149,45.549 316.09,45.592C317.866,45.678 319.833,46.148 319.833,48.329C319.833,51.045 316.326,51.9 314.209,51.9C312.369,51.9 309.931,51.259 309.931,49.014C309.931,47.624 310.402,47.474 310.979,47.345L312.818,46.705ZM318.25,48.822C318.25,47.325 316.004,47.004 314.786,47.004C313.502,47.004 311.514,47.325 311.514,49.036C311.514,50.832 313.289,51.26 314.743,51.26C316.175,51.26 318.25,50.511 318.25,48.822ZM312.604,39.733C312.604,41.038 313.267,42.77 314.806,42.77C316.025,42.77 316.581,41.593 316.56,40.545C316.538,39.327 316.025,37.53 314.486,37.53C313.224,37.53 312.604,38.6 312.604,39.733Z" style="fill:rgb(101,123,131);fill-rule:nonzero;"/>
        </g>
        <g transform="matrix(1,0,0,1.00854,624.915,61.7946)">
            <path d="M327.633,40.161L326.885,40.161C326.885,38.791 326.158,37.659 324.661,37.659C323.571,37.659 322.63,38.172 322.63,39.348C322.63,41.701 328.404,40.417 328.404,44.182C328.404,46.448 326.437,47.56 324.362,47.56C323.272,47.56 322.159,47.346 321.176,46.854L320.877,43.903L321.71,43.903C321.753,45.55 322.757,46.791 324.47,46.791C325.645,46.791 326.8,46.235 326.8,44.952C326.8,42.193 321.112,43.797 321.112,39.883C321.112,38.002 322.844,36.889 324.619,36.889C325.774,36.889 326.779,37.167 327.677,37.894L327.633,40.161Z" style="fill:rgb(101,123,131);fill-rule:nonzero;"/>
        </g>
        <g transform="matrix(1,0,0,1.00854,624.915,61.7946)">
            <path d="M330.773,47.624L330.389,47.453C330.496,45.999 330.645,44.652 330.645,43.262L330.645,32.441C330.068,32.163 329.405,32.056 328.785,32.056L328.785,31.415C329.812,31.286 331.094,30.944 331.972,30.559L332.463,30.709L332.463,44.439C332.463,45.85 333.277,46.919 334.752,46.919C336.997,46.919 337.746,44.802 337.746,42.428C337.746,40.14 336.954,38.301 334.41,38.301C333.939,38.301 333.447,38.387 332.998,38.537L332.784,38.066L334.516,36.997C334.858,36.954 335.179,36.89 335.521,36.89C338.152,36.89 339.563,38.793 339.563,42.108C339.563,45.037 338.002,47.561 334.111,47.561C333.319,47.561 332.442,47.24 331.758,46.834L330.773,47.624Z" style="fill:rgb(101,123,131);fill-rule:nonzero;"/>
        </g>
        <g transform="matrix(1,0,0,1.00854,624.915,61.7946)">
            <path d="M348.928,38.129L346.94,37.766L346.94,37.124L350.745,37.124L350.745,45.785L352.606,46.042L352.606,46.577C351.409,46.791 350.253,47.154 349.121,47.518L348.928,47.325L348.928,45.743C347.602,46.555 346.641,47.56 345.271,47.56C343.368,47.56 342.128,46.726 342.128,44.716L342.128,38.129L340.311,37.766L340.311,37.124L343.946,37.124L343.946,44.245C343.946,45.464 344.76,46.148 346.064,46.148C347.24,46.148 347.946,45.699 348.929,45.122L348.928,38.129Z" style="fill:rgb(101,123,131);fill-rule:nonzero;"/>
        </g>
        <g transform="matrix(1,0,0,1.00854,624.915,61.7946)">
            <path d="M357.51,37.039L357.51,39.712L357.895,39.113C358.366,38.236 359.243,36.804 360.375,36.804C360.824,36.804 361.06,36.975 361.402,37.231L361.124,38.899L360.847,38.963C360.612,38.792 360.12,38.557 359.842,38.557C358.601,38.557 357.511,40.717 357.511,41.102L357.511,46.319L359.756,46.683L359.756,47.325L353.726,47.325L353.726,46.683L355.693,46.319L355.693,38.771C355.115,38.494 354.452,38.386 353.833,38.386L353.833,37.745C354.859,37.616 356.143,37.274 357.019,36.889L357.51,37.039Z" style="fill:rgb(101,123,131);fill-rule:nonzero;"/>
        </g>
        <g transform="matrix(1,0,0,1.00854,624.915,61.7946)">
            <path d="M364.557,46.705C363.552,46.32 362.546,45.335 362.996,44.181L364.941,43.261C363.551,42.897 362.654,41.743 362.654,40.289C362.654,38.022 364.236,36.888 366.417,36.888C367.23,36.888 368.043,37.145 368.812,37.38L369.368,37.38L371.528,37.273C371.506,37.188 372.084,38.172 371.25,38.492C370.993,38.599 370.032,38.407 369.411,38.257C369.818,38.813 369.989,39.369 369.989,40.032C369.989,42.298 367.958,43.561 365.862,43.411L365.456,43.625L364.601,44.159C364.664,45.549 366.888,45.549 367.83,45.592C369.605,45.678 371.573,46.148 371.573,48.329C371.573,51.045 368.065,51.9 365.948,51.9C364.109,51.9 361.671,51.259 361.671,49.014C361.671,47.624 362.142,47.474 362.718,47.345L364.557,46.705ZM369.989,48.822C369.989,47.325 367.744,47.004 366.526,47.004C365.242,47.004 363.254,47.325 363.254,49.036C363.254,50.832 365.028,51.26 366.483,51.26C367.915,51.26 369.989,50.511 369.989,48.822ZM364.344,39.733C364.344,41.038 365.006,42.77 366.546,42.77C367.765,42.77 368.321,41.593 368.3,40.545C368.278,39.327 367.765,37.53 366.225,37.53C364.964,37.53 364.344,38.6 364.344,39.733Z" style="fill:rgb(101,123,131);fill-rule:nonzero;"/>
        </g>
        <g transform="matrix(1,0,0,1.00854,624.915,61.7946)">
            <path d="M181.086,55.835L181.086,56.562L179.012,56.926C179.204,57.674 179.418,58.422 179.654,59.171L182.262,67.448L185.555,56.926L183.374,56.563L183.374,55.836L188.25,55.836L188.25,56.563L186.817,56.926L182.305,70.933L181.193,70.933L177.708,59.878L173.944,70.933L172.874,70.933L168.897,56.926L167.25,56.563L167.25,55.836L173.003,55.836L173.003,56.563L171.014,56.926L173.944,67.491L176.596,59.386C176.873,58.552 177.151,57.718 177.344,56.926L175.313,56.563L175.313,55.836L181.086,55.836L181.086,55.835Z" style="fill:rgb(101,123,131);fill-rule:nonzero;"/>
        </g>
        <g transform="matrix(1,0,0,1.00854,624.915,61.7946)">
            <path d="M188.417,70.762L188.417,70.12L190.513,69.756L190.513,62.207C189.936,61.929 189.272,61.822 188.653,61.822L188.653,61.181C189.679,61.052 190.962,60.71 191.839,60.326L192.33,60.475L192.33,69.756L194.426,70.12L194.426,70.762L188.417,70.762ZM191.304,57.803C190.77,57.803 190.256,57.332 190.256,56.797C190.256,56.241 190.706,55.664 191.304,55.664C191.924,55.664 192.395,56.198 192.395,56.798C192.395,57.375 191.86,57.803 191.304,57.803Z" style="fill:rgb(101,123,131);fill-rule:nonzero;"/>
        </g>
        <g transform="matrix(1,0,0,1.00854,624.915,61.7946)">
            <path d="M199.366,60.476L199.366,63.149L199.751,62.55C200.222,61.673 201.098,60.241 202.231,60.241C202.68,60.241 202.916,60.411 203.258,60.669L202.981,62.336L202.703,62.4C202.467,62.23 201.976,61.994 201.698,61.994C200.457,61.994 199.367,64.154 199.367,64.539L199.367,69.757L201.613,70.12L201.613,70.762L195.582,70.762L195.582,70.12L197.549,69.757L197.549,62.208C196.972,61.93 196.309,61.823 195.689,61.823L195.689,61.181C196.715,61.053 197.998,60.711 198.875,60.326L199.366,60.476Z" style="fill:rgb(101,123,131);fill-rule:nonzero;"/>
        </g>
        <g transform="matrix(1,0,0,1.00854,624.915,61.7946)">
            <path d="M204.358,61.566C205.727,61.011 206.795,59.62 207.202,58.145L207.715,58.145L207.715,61.139L210.923,61.139L210.923,62.208L207.715,62.208L207.715,67.405C207.672,68.923 208.185,69.629 209.425,69.65C210.067,69.65 210.58,69.201 211.072,68.731L211.371,69.244L210.088,70.548C209.639,70.997 208.955,70.933 208.378,70.933C207.159,70.933 205.897,70.313 205.897,68.26L205.897,62.208L204.358,62.208L204.358,61.566Z" style="fill:rgb(101,123,131);fill-rule:nonzero;"/>
        </g>
        <g transform="matrix(1,0,0,1.00854,624.915,61.7946)">
            <path d="M219.436,63.598L218.687,63.598C218.687,62.229 217.96,61.097 216.463,61.097C215.373,61.097 214.432,61.609 214.432,62.786C214.432,65.139 220.205,63.855 220.205,67.619C220.205,69.885 218.238,70.998 216.163,70.998C215.073,70.998 213.961,70.784 212.977,70.292L212.678,67.341L213.512,67.341C213.555,68.988 214.559,70.228 216.27,70.228C217.447,70.228 218.601,69.672 218.601,68.389C218.601,65.631 212.913,67.235 212.913,63.321C212.913,61.439 214.645,60.327 216.42,60.327C217.575,60.327 218.58,60.604 219.478,61.332L219.436,63.598Z" style="fill:rgb(101,123,131);fill-rule:nonzero;"/>
        </g>
        <g transform="matrix(1,0,0,1.00854,624.915,61.7946)">
            <path d="M228.458,63.598L228.18,63.384C228.244,61.973 228.202,61.096 226.597,61.096C223.818,61.096 223.604,63.683 223.732,65.865C223.903,67.96 224.887,69.586 227.175,69.586C229.1,69.586 229.506,68.816 230.49,67.277L231.003,67.576C230.725,68.068 229.677,70.249 229.078,70.527C228.33,70.912 227.389,70.998 226.555,70.998C223.325,70.998 221.808,69.073 221.808,65.951C221.808,62.808 223.133,60.327 226.64,60.327C227.581,60.327 229.164,60.626 229.784,61.418C230.212,61.974 230.126,62.423 230.061,63.064L228.458,63.598Z" style="fill:rgb(101,123,131);fill-rule:nonzero;"/>
        </g>
        <g transform="matrix(1,0,0,1.00854,624.915,61.7946)">
            <path d="M235.098,54.146L235.098,62.08C236.125,61.331 237.129,60.604 237.387,60.497C237.6,60.411 237.964,60.326 238.178,60.326C241.022,60.326 241.834,61.567 241.834,63.683L241.834,69.757L243.652,70.121L243.652,70.763L238.199,70.763L238.199,70.121L240.016,69.757L240.016,65.394C240.016,63.641 240.08,61.738 237.856,61.738C236.851,61.738 235.91,62.144 235.098,62.722L235.098,69.757L236.915,70.121L236.915,70.763L231.462,70.763L231.462,70.121L233.28,69.757L233.28,55.878C232.702,55.601 232.039,55.493 231.419,55.493L231.419,54.852C232.446,54.723 233.729,54.381 234.606,53.996L235.098,54.146Z" style="fill:rgb(101,123,131);fill-rule:nonzero;"/>
        </g>
        <g transform="matrix(1,0,0,1.00854,624.915,61.7946)">
            <path d="M250.769,63.598C250.769,61.952 250.235,61.459 249.273,61.459C247.883,61.459 247.391,62.657 247.456,63.769C247.477,64.026 247.285,64.004 247.092,64.047L245.809,64.303L245.659,64.218L245.744,62.87C245.766,62.507 246.664,62.015 246.92,61.865L249.443,60.432C249.679,60.304 249.956,60.326 250.213,60.326C251.582,60.326 252.587,61.074 252.587,62.956L252.587,69.2L254.34,69.564L254.34,70.077C253.25,70.269 251.988,70.59 250.833,70.997L250.683,70.826L250.747,69.457C249.678,70.27 248.501,70.997 247.111,70.997C245.55,70.997 244.866,69.714 244.866,68.88C244.866,67.104 246.235,66.634 247.197,66.335C248.48,65.929 249.677,65.48 250.767,65.159L250.767,63.597L250.769,63.597L250.769,63.598ZM250.769,65.736C248.802,66.72 246.792,67.041 246.792,68.538C246.792,69.307 247.498,69.8 248.353,69.8C249.016,69.8 250.085,69.265 250.769,68.859L250.769,65.736Z" style="fill:rgb(101,123,131);fill-rule:nonzero;"/>
        </g>
        <g transform="matrix(1,0,0,1.00854,624.915,61.7946)">
            <path d="M255.865,62.208L255.865,61.139L257.191,61.139C257.191,56.947 258.774,53.996 261.126,53.996C261.597,53.996 261.896,54.124 262.11,54.231L261.511,55.921C260.911,55.493 260.697,55.322 260.078,55.322C258.73,55.322 258.773,57.354 259.05,61.139L261.638,61.139L261.638,62.208L259.029,62.208L259.029,69.757L261.125,70.12L261.125,70.762L255.394,70.762L255.394,70.12L257.211,69.757L257.211,62.208L255.865,62.208Z" style="fill:rgb(101,123,131);fill-rule:nonzero;"/>
        </g>
        <g transform="matrix(1,0,0,1.00854,624.915,61.7946)">
            <path d="M262.935,61.566C264.304,61.011 265.373,59.62 265.779,58.145L266.292,58.145L266.292,61.139L269.5,61.139L269.5,62.208L266.292,62.208L266.292,67.405C266.249,68.923 266.763,69.629 268.002,69.65C268.644,69.65 269.157,69.201 269.649,68.731L269.948,69.244L268.665,70.548C268.216,70.997 267.532,70.933 266.955,70.933C265.736,70.933 264.475,70.313 264.475,68.26L264.475,62.208L262.935,62.208L262.935,61.566Z" style="fill:rgb(101,123,131);fill-rule:nonzero;"/>
        </g>
        <g transform="matrix(1,0,0,1.00854,624.915,61.7946)">
            <path d="M278.013,63.598L277.265,63.598C277.265,62.229 276.537,61.097 275.041,61.097C273.95,61.097 273.009,61.609 273.009,62.786C273.009,65.139 278.783,63.855 278.783,67.619C278.783,69.885 276.815,70.998 274.741,70.998C273.651,70.998 272.538,70.784 271.555,70.292L271.255,67.341L272.089,67.341C272.132,68.988 273.137,70.228 274.848,70.228C276.024,70.228 277.179,69.672 277.179,68.389C277.179,65.631 271.491,67.235 271.491,63.321C271.491,61.439 273.223,60.327 274.998,60.327C276.153,60.327 277.158,60.604 278.056,61.332L278.013,63.598Z" style="fill:rgb(101,123,131);fill-rule:nonzero;"/>
        </g>
        <g transform="matrix(1,0,0,1.00854,624.915,61.7946)">
            <path d="M283.233,61.566L285.564,68.11L288.43,60.561L289.029,60.561L291.83,68.153L294.183,61.566L292.345,61.203L292.345,60.561L296.792,60.561L296.792,61.203L295.38,61.566L291.702,70.997L290.996,70.997L288.259,63.726L285.415,70.997L284.752,70.997L281.267,61.566L279.663,61.203L279.663,60.561L285.073,60.561L285.073,61.203L283.233,61.566Z" style="fill:rgb(101,123,131);fill-rule:nonzero;"/>
        </g>
        <g transform="matrix(1,0,0,1.00854,624.915,61.7946)">
            <path d="M297.846,70.762L297.846,70.12L299.941,69.756L299.941,62.207C299.364,61.929 298.701,61.822 298.081,61.822L298.081,61.181C299.108,61.052 300.391,60.71 301.267,60.326L301.759,60.475L301.759,69.756L303.855,70.12L303.855,70.762L297.846,70.762ZM300.732,57.803C300.198,57.803 299.685,57.332 299.685,56.797C299.685,56.241 300.135,55.664 300.732,55.664C301.353,55.664 301.823,56.198 301.823,56.798C301.823,57.375 301.289,57.803 300.732,57.803Z" style="fill:rgb(101,123,131);fill-rule:nonzero;"/>
        </g>
        <g transform="matrix(1,0,0,1.00854,624.915,61.7946)">
            <path d="M311.893,63.598L311.145,63.598C311.145,62.229 310.418,61.097 308.921,61.097C307.83,61.097 306.889,61.609 306.889,62.786C306.889,65.139 312.663,63.855 312.663,67.619C312.663,69.885 310.696,70.998 308.622,70.998C307.531,70.998 306.419,70.784 305.435,70.292L305.136,67.341L305.97,67.341C306.013,68.988 307.017,70.228 308.728,70.228C309.905,70.228 311.059,69.672 311.059,68.389C311.059,65.631 305.371,67.235 305.371,63.321C305.371,61.439 307.103,60.327 308.879,60.327C310.033,60.327 311.038,60.604 311.936,61.332L311.893,63.598Z" style="fill:rgb(101,123,131);fill-rule:nonzero;"/>
        </g>
        <g transform="matrix(1,0,0,1.00854,624.915,61.7946)">
            <path d="M321.027,63.598L320.279,63.598C320.279,62.229 319.552,61.097 318.054,61.097C316.963,61.097 316.023,61.609 316.023,62.786C316.023,65.139 321.797,63.855 321.797,67.619C321.797,69.885 319.829,70.998 317.755,70.998C316.665,70.998 315.552,70.784 314.569,70.292L314.27,67.341L315.103,67.341C315.147,68.988 316.151,70.228 317.862,70.228C319.038,70.228 320.193,69.672 320.193,68.389C320.193,65.631 314.505,67.235 314.505,63.321C314.505,61.439 316.237,60.327 318.012,60.327C319.167,60.327 320.172,60.604 321.07,61.332L321.027,63.598Z" style="fill:rgb(101,123,131);fill-rule:nonzero;"/>
        </g>
        <g transform="matrix(1,0,0,1.00854,624.915,61.7946)">
            <path d="M325.111,64.475C325.111,67.276 326.202,69.586 328.982,69.586C330.286,69.586 331.313,68.645 332.147,67.768L332.618,68.239L330.115,70.763C329.965,70.848 329.196,70.998 328.105,70.998C325.453,70.998 323.357,69.094 323.357,65.63C323.357,62.23 325.475,60.327 328.105,60.327C330.329,60.327 331.997,61.823 331.997,63.62C331.997,64.432 331.784,64.475 331.143,64.475L325.112,64.475L325.112,64.475L325.111,64.475ZM330.137,63.833C330.222,62.25 329.517,60.968 327.784,60.968C326.223,60.968 325.261,62.422 325.154,63.833L330.137,63.833Z" style="fill:rgb(101,123,131);fill-rule:nonzero;"/>
        </g>
        <g transform="matrix(1,0,0,1.00854,624.915,61.7946)">
            <path d="M336.811,69.757L338.629,70.12L338.629,70.762L333.176,70.762L333.176,70.12L334.993,69.757L334.993,62.208C334.416,61.93 333.752,61.823 333.133,61.823L333.133,61.181C334.159,61.053 335.442,60.711 336.319,60.326L336.811,60.476L336.811,62.08C337.838,61.331 338.842,60.603 339.099,60.496C339.313,60.411 339.677,60.326 339.891,60.326C342.735,60.326 343.548,61.566 343.548,63.683L343.548,69.757L345.365,70.12L345.365,70.762L339.912,70.762L339.912,70.12L341.728,69.757L341.728,65.394C341.728,63.64 341.792,61.737 339.569,61.737C338.564,61.737 337.623,62.143 336.81,62.721L336.811,69.757Z" style="fill:rgb(101,123,131);fill-rule:nonzero;"/>
        </g>
        <g transform="matrix(1,0,0,1.00854,624.915,61.7946)">
            <path d="M353.367,63.598L352.619,63.598C352.619,62.229 351.892,61.097 350.395,61.097C349.304,61.097 348.363,61.609 348.363,62.786C348.363,65.139 354.137,63.855 354.137,67.619C354.137,69.885 352.17,70.998 350.096,70.998C349.005,70.998 347.893,70.784 346.909,70.292L346.61,67.341L347.443,67.341C347.487,68.988 348.491,70.228 350.203,70.228C351.378,70.228 352.533,69.672 352.533,68.389C352.533,65.631 346.845,67.235 346.845,63.321C346.845,61.439 348.577,60.327 350.352,60.327C351.507,60.327 352.512,60.604 353.41,61.332L353.367,63.598Z" style="fill:rgb(101,123,131);fill-rule:nonzero;"/>
        </g>
        <g transform="matrix(1,0,0,1.00854,624.915,61.7946)">
            <path d="M362.389,63.598L362.111,63.384C362.175,61.973 362.133,61.096 360.529,61.096C357.748,61.096 357.534,63.683 357.663,65.865C357.834,67.96 358.818,69.586 361.106,69.586C363.03,69.586 363.437,68.816 364.421,67.277L364.934,67.576C364.656,68.068 363.608,70.249 363.01,70.527C362.261,70.912 361.32,70.998 360.486,70.998C357.257,70.998 355.738,69.073 355.738,65.951C355.738,62.808 357.064,60.327 360.572,60.327C361.512,60.327 363.095,60.626 363.715,61.418C364.143,61.974 364.057,62.423 363.992,63.064L362.389,63.598Z" style="fill:rgb(101,123,131);fill-rule:nonzero;"/>
        </g>
        <g transform="matrix(1,0,0,1.00854,624.915,61.7946)">
            <path d="M369.029,54.146L369.029,62.08C370.055,61.331 371.06,60.604 371.317,60.497C371.53,60.411 371.894,60.326 372.108,60.326C374.952,60.326 375.765,61.567 375.765,63.683L375.765,69.757L377.583,70.121L377.583,70.763L372.13,70.763L372.13,70.121L373.947,69.757L373.947,65.394C373.947,63.641 374.011,61.738 371.787,61.738C370.782,61.738 369.841,62.144 369.029,62.722L369.029,69.757L370.846,70.121L370.846,70.763L365.393,70.763L365.393,70.121L367.21,69.757L367.21,55.878C366.633,55.601 365.97,55.493 365.35,55.493L365.35,54.852C366.377,54.723 367.659,54.381 368.536,53.996L369.029,54.146Z" style="fill:rgb(101,123,131);fill-rule:nonzero;"/>
        </g>
        <g transform="matrix(1,0,0,1.00854,624.915,61.7946)">
            <path d="M384.7,63.598C384.7,61.952 384.165,61.459 383.203,61.459C381.813,61.459 381.322,62.657 381.386,63.769C381.407,64.026 381.215,64.004 381.022,64.047L379.739,64.303L379.589,64.218L379.674,62.87C379.696,62.507 380.594,62.015 380.85,61.865L383.374,60.432C383.609,60.304 383.887,60.326 384.143,60.326C385.513,60.326 386.517,61.074 386.517,62.956L386.517,69.2L388.271,69.564L388.271,70.077C387.18,70.269 385.918,70.59 384.764,70.997L384.613,70.826L384.677,69.457C383.608,70.27 382.431,70.997 381.042,70.997C379.481,70.997 378.796,69.714 378.796,68.88C378.796,67.104 380.165,66.634 381.128,66.335C382.41,65.929 383.608,65.48 384.698,65.159L384.698,63.597L384.7,63.597L384.7,63.598ZM384.7,65.736C382.733,66.72 380.722,67.041 380.722,68.538C380.722,69.307 381.428,69.8 382.283,69.8C382.946,69.8 384.015,69.265 384.7,68.859L384.7,65.736Z" style="fill:rgb(101,123,131);fill-rule:nonzero;"/>
        </g>
        <g transform="matrix(1,0,0,1.00854,624.915,61.7946)">
            <path d="M389.795,62.208L389.795,61.139L391.121,61.139C391.121,56.947 392.704,53.996 395.056,53.996C395.527,53.996 395.826,54.124 396.04,54.231L395.44,55.921C394.842,55.493 394.628,55.322 394.007,55.322C392.66,55.322 392.703,57.354 392.981,61.139L395.568,61.139L395.568,62.208L392.959,62.208L392.959,69.757L395.055,70.12L395.055,70.762L389.324,70.762L389.324,70.12L391.141,69.757L391.141,62.208L389.795,62.208Z" style="fill:rgb(101,123,131);fill-rule:nonzero;"/>
        </g>
        <g transform="matrix(1,0,0,1.00854,624.915,61.7946)">
            <path d="M396.865,61.566C398.235,61.011 399.304,59.62 399.71,58.145L400.223,58.145L400.223,61.139L403.431,61.139L403.431,62.208L400.223,62.208L400.223,67.405C400.179,68.923 400.694,69.629 401.933,69.65C402.574,69.65 403.088,69.201 403.58,68.731L403.879,69.244L402.596,70.548C402.147,70.997 401.462,70.933 400.886,70.933C399.667,70.933 398.405,70.313 398.405,68.26L398.405,62.208L396.865,62.208L396.865,61.566Z" style="fill:rgb(101,123,131);fill-rule:nonzero;"/>
        </g>
        <g transform="matrix(1,0,0,1.00854,624.915,61.7946)">
            <path d="M408.762,54.146L408.762,69.757L410.857,70.121L410.857,70.763L404.849,70.763L404.849,70.121L406.944,69.757L406.944,55.878C406.367,55.601 405.704,55.493 405.084,55.493L405.084,54.852C406.111,54.723 407.393,54.381 408.27,53.996L408.762,54.146Z" style="fill:rgb(101,123,131);fill-rule:nonzero;"/>
        </g>
        <g transform="matrix(1,0,0,1.00854,624.915,61.7946)">
            <path d="M412.062,70.762L412.062,70.12L414.158,69.756L414.158,62.207C413.58,61.929 412.917,61.822 412.297,61.822L412.297,61.181C413.325,61.052 414.607,60.71 415.484,60.326L415.976,60.475L415.976,69.756L418.072,70.12L418.072,70.762L412.062,70.762ZM414.948,57.803C414.414,57.803 413.901,57.332 413.901,56.797C413.901,56.241 414.35,55.664 414.948,55.664C415.568,55.664 416.039,56.198 416.039,56.798C416.04,57.375 415.505,57.803 414.948,57.803Z" style="fill:rgb(101,123,131);fill-rule:nonzero;"/>
        </g>
        <g transform="matrix(1,0,0,1.00854,624.915,61.7946)">
            <path d="M425.498,63.598L425.22,63.384C425.284,61.973 425.242,61.096 423.637,61.096C420.857,61.096 420.643,63.683 420.772,65.865C420.942,67.96 421.926,69.586 424.215,69.586C426.139,69.586 426.546,68.816 427.53,67.277L428.043,67.576C427.765,68.068 426.717,70.249 426.119,70.527C425.37,70.912 424.429,70.998 423.595,70.998C420.365,70.998 418.847,69.073 418.847,65.951C418.847,62.808 420.173,60.327 423.68,60.327C424.621,60.327 426.204,60.626 426.823,61.418C427.251,61.974 427.166,62.423 427.101,63.064L425.498,63.598Z" style="fill:rgb(101,123,131);fill-rule:nonzero;"/>
        </g>
        <g transform="matrix(1,0,0,1.00854,624.915,61.7946)">
            <path d="M432.139,54.146L432.139,62.08C433.166,61.331 434.167,60.604 434.424,60.497C434.639,60.411 435.004,60.326 435.219,60.326C438.062,60.326 438.874,61.567 438.874,63.683L438.874,69.757L440.691,70.121L440.691,70.763L435.241,70.763L435.241,70.121L437.057,69.757L437.057,65.394C437.057,63.641 437.117,61.738 434.897,61.738C433.892,61.738 432.951,62.144 432.139,62.722L432.139,69.757L433.956,70.121L433.956,70.763L428.502,70.763L428.502,70.121L430.318,69.757L430.318,55.878C429.743,55.601 429.079,55.493 428.46,55.493L428.46,54.852C429.486,54.723 430.769,54.381 431.646,53.996L432.139,54.146Z" style="fill:rgb(101,123,131);fill-rule:nonzero;"/>
        </g>
        <g transform="matrix(1,0,0,1.00854,624.915,61.7946)">
            <path d="M443.105,64.475C443.105,67.276 444.196,69.586 446.979,69.586C448.28,69.586 449.307,68.645 450.14,67.768L450.613,68.239L448.109,70.763C447.958,70.848 447.189,70.998 446.098,70.998C443.448,70.998 441.352,69.094 441.352,65.63C441.352,62.23 443.47,60.327 446.098,60.327C448.323,60.327 449.994,61.823 449.994,63.62C449.994,64.432 449.779,64.475 449.139,64.475L443.105,64.475L443.105,64.475ZM448.13,63.833C448.216,62.25 447.512,60.968 445.781,60.968C444.217,60.968 443.255,62.422 443.148,63.833L448.13,63.833Z" style="fill:rgb(101,123,131);fill-rule:nonzero;"/>
        </g>
        <g transform="matrix(1,0,0,1.00854,624.915,61.7946)">
            <path d="M176.425,86.534L172.105,86.534L172.105,92.586L174.414,92.95L174.414,93.676L167.7,93.676L167.7,92.95L170.009,92.586L170.009,79.84L167.7,79.477L167.7,78.75L177.921,78.75L178.178,82.171L177.451,82.171L176.938,79.947L172.105,79.947L172.105,85.465L176.403,85.465L176.809,83.861L177.451,83.861C177.323,85.016 177.323,87.026 177.451,88.181L176.809,88.181L176.425,86.534Z" style="fill:rgb(101,123,131);fill-rule:nonzero;"/>
        </g>
        <g transform="matrix(1,0,0,1.00854,624.915,61.7946)">
            <path d="M184.763,86.512C184.763,84.866 184.228,84.374 183.266,84.374C181.876,84.374 181.384,85.571 181.449,86.683C181.47,86.94 181.278,86.919 181.085,86.961L179.802,87.217L179.652,87.132L179.738,85.784C179.759,85.421 180.657,84.929 180.914,84.78L183.437,83.347C183.672,83.218 183.95,83.24 184.207,83.24C185.576,83.24 186.581,83.988 186.581,85.87L186.581,92.115L188.334,92.478L188.334,92.992C187.244,93.184 185.982,93.505 184.827,93.911L184.677,93.741L184.741,92.371C183.672,93.185 182.495,93.911 181.105,93.911C179.544,93.911 178.86,92.629 178.86,91.794C178.86,90.019 180.229,89.549 181.191,89.249C182.474,88.843 183.671,88.394 184.762,88.073L184.763,86.512ZM184.763,88.651C182.795,89.635 180.785,89.955 180.785,91.452C180.785,92.222 181.491,92.714 182.346,92.714C183.009,92.714 184.078,92.179 184.763,91.774L184.763,88.651Z" style="fill:rgb(101,123,131);fill-rule:nonzero;"/>
        </g>
        <g transform="matrix(1,0,0,1.00854,624.915,61.7946)">
            <path d="M193.233,77.06L193.233,92.671L195.051,93.035L195.051,93.676L189.598,93.676L189.598,93.035L191.415,92.671L191.415,78.792C190.838,78.515 190.175,78.407 189.555,78.407L189.555,77.766C190.581,77.637 191.864,77.295 192.741,76.911L193.233,77.06ZM200.761,83.475L200.761,84.117L198.857,84.481L195.521,88.052C197.253,89.699 198.814,91.538 200.825,92.864C201.06,93.013 201.21,93.013 201.467,93.056L201.467,93.676C200.633,93.676 199.798,93.74 198.986,93.826L193.64,88.801L193.64,88.543L197.318,84.48L195.414,84.117L195.414,83.475L200.761,83.475Z" style="fill:rgb(101,123,131);fill-rule:nonzero;"/>
        </g>
        <g transform="matrix(1,0,0,1.00854,624.915,61.7946)">
            <path d="M210.745,84.481L208.757,84.117L208.757,83.476L212.563,83.476L212.563,92.137L214.423,92.394L214.423,92.928C213.226,93.142 212.071,93.506 210.938,93.869L210.745,93.677L210.745,92.094C209.419,92.907 208.457,93.911 207.088,93.911C205.185,93.911 203.945,93.078 203.945,91.067L203.945,84.481L202.127,84.117L202.127,83.476L205.763,83.476L205.763,90.597C205.763,91.816 206.576,92.5 207.88,92.5C209.056,92.5 209.762,92.051 210.746,91.473L210.746,84.481L210.745,84.481Z" style="fill:rgb(101,123,131);fill-rule:nonzero;"/>
        </g>
        <g transform="matrix(1,0,0,1.00854,624.915,61.7946)">
            <path d="M219.505,77.06L219.505,92.671L221.601,93.035L221.601,93.676L215.591,93.676L215.591,93.035L217.686,92.671L217.686,78.792C217.109,78.515 216.446,78.407 215.826,78.407L215.826,77.766C216.852,77.637 218.135,77.295 219.012,76.911L219.505,77.06Z" style="fill:rgb(101,123,131);fill-rule:nonzero;"/>
        </g>
        <g transform="matrix(1,0,0,1.00854,624.915,61.7946)">
            <path d="M221.939,84.481C223.307,83.925 224.376,82.535 224.782,81.059L225.296,81.059L225.296,84.053L228.503,84.053L228.503,85.123L225.296,85.123L225.296,90.32C225.253,91.838 225.766,92.544 227.006,92.565C227.648,92.565 228.161,92.116 228.653,91.646L228.952,92.158L227.669,93.463C227.22,93.912 226.535,93.848 225.958,93.848C224.739,93.848 223.478,93.227 223.478,91.174L223.478,85.122L221.939,85.122L221.939,84.481Z" style="fill:rgb(101,123,131);fill-rule:nonzero;"/>
        </g>
        <g transform="matrix(1,0,0,1.00854,624.915,61.7946)">
            <path d="M236.159,86.512C236.159,84.866 235.624,84.374 234.662,84.374C233.272,84.374 232.78,85.571 232.845,86.683C232.866,86.94 232.674,86.919 232.481,86.961L231.198,87.217L231.048,87.132L231.133,85.784C231.154,85.421 232.053,84.929 232.309,84.78L234.833,83.347C235.068,83.218 235.346,83.24 235.602,83.24C236.971,83.24 237.976,83.988 237.976,85.87L237.976,92.115L239.73,92.478L239.73,92.992C238.639,93.184 237.377,93.505 236.223,93.911L236.072,93.741L236.136,92.371C235.067,93.185 233.89,93.911 232.501,93.911C230.939,93.911 230.255,92.629 230.255,91.794C230.255,90.019 231.624,89.549 232.586,89.249C233.869,88.843 235.067,88.394 236.157,88.073L236.159,86.512ZM232.909,79.22C233.508,79.22 234.021,79.733 234.021,80.332C234.021,80.932 233.508,81.423 232.909,81.423C232.31,81.423 231.818,80.931 231.818,80.332C231.818,79.733 232.309,79.22 232.909,79.22ZM236.159,88.651C234.191,89.635 232.181,89.955 232.181,91.452C232.181,92.222 232.887,92.714 233.742,92.714C234.405,92.714 235.474,92.179 236.159,91.774L236.159,88.651ZM236.629,81.422C236.031,81.422 235.496,80.931 235.496,80.332C235.496,79.733 236.031,79.22 236.629,79.22C237.229,79.22 237.699,79.754 237.699,80.332C237.698,80.909 237.207,81.422 236.629,81.422Z" style="fill:rgb(101,123,131);fill-rule:nonzero;"/>
        </g>
        <g transform="matrix(1,0,0,1.00854,624.915,61.7946)">
            <path d="M240.099,84.481C241.467,83.925 242.536,82.535 242.942,81.059L243.456,81.059L243.456,84.053L246.663,84.053L246.663,85.123L243.456,85.123L243.456,90.32C243.412,91.838 243.926,92.544 245.165,92.565C245.807,92.565 246.32,92.116 246.812,91.646L247.111,92.158L245.829,93.463C245.379,93.912 244.695,93.848 244.118,93.848C242.899,93.848 241.638,93.227 241.638,91.174L241.638,85.122L240.099,85.122L240.099,84.481Z" style="fill:rgb(101,123,131);fill-rule:nonzero;"/>
        </g>
    </g>
</svg>
