<svg width="538" height="97" xmlns="http://www.w3.org/2000/svg" xmlns:xlink="http://www.w3.org/1999/xlink" xml:space="preserve" overflow="hidden"><g transform="translate(-627 -64)"><path d="M107.161 13.0115C107.161 7.13969 102.401 2.37947 96.529 2.37947 90.6572 2.37947 85.8949 7.13969 85.8949 13.0115 85.8949 18.8854 90.6572 23.6461 96.529 23.6461 102.401 23.6461 107.161 18.8858 107.161 13.0115ZM155.269 93.6823 117.489 32.8169 117.488 33.0003 117.488 32.8169 103.225 32.8169 103.225 93.6823 117.488 93.6823 117.488 93.6732 117.493 93.6823 134.013 83.4785 140.312 93.6823 155.269 93.6823ZM117.488 81.4388 117.488 56.6996 128.539 74.613 117.488 81.4388ZM89.1218 32.8169 89.1218 93.6823 74.8879 93.6823 52.3697 57.1618 51.9823 56.5175 51.9823 71.1186C51.9823 76.9109 51.186 83.2092 47.9278 87.0464 42.8596 93.2729 33.5204 94.5026 26.9326 94.5026 2.2446 94.5026 2.17244 79.1551 2.17244 70.6109L2.17244 32.8169 16.8693 32.8169 16.8693 63.9789C16.8693 74.7389 17.0866 77.6338 18.5345 79.8058 20.4888 82.7024 23.8926 84.0781 27.4395 84.0781 36.633 84.0781 37.8644 76.6201 37.8644 71.4076L37.8644 62.6006 37.864 32.8173 52.0927 32.8173 75.1267 70.9785 75.1267 32.8169 89.1218 32.8169Z" fill="#FFFFFF" transform="matrix(1 0 0 1.00854 624.915 61.7946)"/><path d="M182.543 33.4886 182.543 40.6528C182.543 44.8229 180.832 47.71 176.02 47.71 171.529 47.71 169.562 45.3366 169.626 42.0431L169.626 33.4886 167.531 33.1253 167.531 32.3981 173.818 32.3981 173.818 33.1253 171.722 33.4886 171.722 41.2515C171.658 44.4376 172.92 46.5336 176.192 46.5336 177.261 46.5336 178.972 46.1273 179.998 44.8658 180.832 43.8608 180.832 41.9783 180.832 40.8237L180.832 33.4886 178.737 33.1253 178.737 32.3981 184.639 32.3981 184.639 33.1253 182.543 33.4886Z" fill="#FFFFFF" transform="matrix(1 0 0 1.00854 624.915 61.7946)"/><path d="M188.346 46.3197 190.163 46.6835 190.163 47.3252 184.71 47.3252 184.71 46.6835 186.528 46.3197 186.528 38.7711C185.951 38.4937 185.287 38.3863 184.667 38.3863L184.667 37.7446C185.694 37.6162 186.977 37.2743 187.854 36.889L188.346 37.0389 188.346 38.6427C189.372 37.8941 190.377 37.1669 190.634 37.06 190.848 36.9745 191.211 36.889 191.425 36.889 194.269 36.889 195.082 38.1295 195.082 40.2465L195.082 46.3197 196.9 46.6835 196.9 47.3252 191.447 47.3252 191.447 46.6835 193.264 46.3197 193.264 41.9572C193.264 40.2035 193.328 38.3004 191.104 38.3004 190.099 38.3004 189.158 38.7067 188.345 39.2844L188.346 46.3197 188.346 46.3197Z" fill="#FFFFFF" transform="matrix(1 0 0 1.00854 624.915 61.7946)"/><path d="M198.067 47.3248 198.067 46.6831 200.163 46.3193 200.163 38.7711C199.585 38.4937 198.922 38.3863 198.302 38.3863L198.302 37.7446C199.329 37.6162 200.612 37.2743 201.488 36.889L201.98 37.0389 201.98 46.3197 204.076 46.6835 204.076 47.3252 198.067 47.3248 198.067 47.3248ZM200.955 34.3657C200.42 34.3657 199.907 33.8954 199.907 33.3606 199.907 32.8049 200.356 32.2272 200.955 32.2272 201.575 32.2272 202.045 32.7615 202.045 33.3606 202.045 33.9379 201.51 34.3657 200.955 34.3657Z" fill="#FFFFFF" transform="matrix(1 0 0 1.00854 624.915 61.7946)"/><path d="M209.278 37.1244 209.278 37.7661 207.524 38.1295 210.133 44.9732 212.785 38.1295 211.053 37.7661 211.053 37.1244 215.308 37.1244 215.308 37.7661 213.961 38.1295 210.133 47.5606 209.278 47.5606 205.45 38.1295 203.995 37.7661 203.995 37.1244 209.278 37.1244Z" fill="#FFFFFF" transform="matrix(1 0 0 1.00854 624.915 61.7946)"/><path d="M217.617 41.0376C217.617 43.8385 218.707 46.1483 221.488 46.1483 222.792 46.1483 223.819 45.2077 224.653 44.3311L225.123 44.8018 222.621 47.3252C222.471 47.4107 221.701 47.5606 220.611 47.5606 217.959 47.5606 215.864 45.657 215.864 42.1926 215.864 38.7922 217.981 36.889 220.611 36.889 222.835 36.889 224.504 38.3859 224.504 40.1821 224.504 40.9947 224.29 41.0376 223.648 41.0376L217.617 41.0376ZM222.642 40.396C222.728 38.8132 222.022 37.5303 220.289 37.5303 218.728 37.5303 217.766 38.9846 217.659 40.396L222.642 40.396Z" fill="#FFFFFF" transform="matrix(1 0 0 1.00854 624.915 61.7946)"/><path d="M229.385 37.0385 229.385 39.7122 229.77 39.113C230.241 38.236 231.118 36.8036 232.251 36.8036 232.7 36.8036 232.935 36.9745 233.278 37.2314L233 38.8991 232.722 38.9631C232.487 38.7922 231.995 38.5568 231.717 38.5568 230.477 38.5568 229.386 40.7168 229.386 41.1016L229.386 46.3193 231.632 46.6831 231.632 47.3248 225.601 47.3248 225.601 46.6831 227.568 46.3193 227.568 38.7711C226.991 38.4937 226.328 38.3863 225.708 38.3863L225.708 37.7446C226.735 37.6162 228.017 37.2743 228.894 36.889L229.385 37.0385Z" fill="#FFFFFF" transform="matrix(1 0 0 1.00854 624.915 61.7946)"/><path d="M240.974 40.1606 240.225 40.1606C240.225 38.7913 239.499 37.6587 238.001 37.6587 236.911 37.6587 235.97 38.172 235.97 39.3484 235.97 41.7012 241.744 40.4174 241.744 44.1816 241.744 46.4477 239.776 47.5601 237.702 47.5601 236.611 47.5601 235.499 47.3462 234.516 46.8544L234.217 43.9033 235.05 43.9033C235.093 45.55 236.098 46.7905 237.809 46.7905 238.985 46.7905 240.14 46.2347 240.14 44.9517 240.14 42.1926 234.452 43.7972 234.452 39.8831 234.452 38.0015 236.184 36.889 237.959 36.889 239.114 36.889 240.119 37.1669 241.017 37.8941L240.974 40.1606Z" fill="#FFFFFF" transform="matrix(1 0 0 1.00854 624.915 61.7946)"/><path d="M242.751 47.3248 242.751 46.6831 244.847 46.3193 244.847 38.7711C244.269 38.4937 243.607 38.3863 242.987 38.3863L242.987 37.7446C244.013 37.6162 245.296 37.2743 246.173 36.889L246.665 37.0389 246.665 46.3197 248.761 46.6835 248.761 47.3252 242.751 47.3248 242.751 47.3248ZM245.638 34.3657C245.104 34.3657 244.591 33.8954 244.591 33.3606 244.591 32.8049 245.04 32.2272 245.638 32.2272 246.258 32.2272 246.729 32.7615 246.729 33.3606 246.729 33.9379 246.194 34.3657 245.638 34.3657Z" fill="#FFFFFF" transform="matrix(1 0 0 1.00854 624.915 61.7946)"/><path d="M249.098 38.129C250.467 37.5732 251.536 36.1834 251.943 34.7076L252.455 34.7076 252.455 37.7017 255.663 37.7017 255.663 38.7711 252.455 38.7711 252.455 43.9682C252.412 45.486 252.926 46.1922 254.166 46.2136 254.807 46.2136 255.32 45.7644 255.812 45.2941L256.112 45.8069 254.828 47.1113C254.38 47.5606 253.695 47.4961 253.119 47.4961 251.9 47.4961 250.638 46.8759 250.638 44.8225L250.638 38.7707 249.098 38.7707 249.098 38.129 249.098 38.129Z" fill="#FFFFFF" transform="matrix(1 0 0 1.00854 624.915 61.7946)"/><path d="M263.32 40.1606C263.32 38.5143 262.785 38.0221 261.823 38.0221 260.433 38.0221 259.941 39.2195 260.006 40.3315 260.027 40.5888 259.835 40.5673 259.641 40.6094L258.359 40.8658 258.209 40.7804 258.294 39.433C258.316 39.0692 259.214 38.5774 259.47 38.428L261.993 36.9951C262.229 36.8667 262.506 36.8882 262.764 36.8882 264.132 36.8882 265.137 37.6368 265.137 39.5185L265.137 45.7631 266.89 46.1269 266.89 46.6401C265.8 46.8325 264.538 47.1534 263.383 47.5597L263.233 47.3892 263.297 46.0199C262.228 46.833 261.051 47.5597 259.662 47.5597 258.1 47.5597 257.416 46.2772 257.416 45.4427 257.416 43.6675 258.785 43.1972 259.747 42.8978 261.03 42.4915 262.228 42.0427 263.318 41.7218L263.318 40.1606 263.32 40.1606ZM260.069 32.8684C260.668 32.8684 261.181 33.3817 261.181 33.9808 261.181 34.58 260.668 35.0714 260.069 35.0714 259.47 35.0714 258.978 34.5796 258.978 33.9808 258.978 33.3821 259.47 32.8684 260.069 32.8684ZM263.32 42.2991C261.352 43.2831 259.341 43.6035 259.341 45.1003 259.341 45.87 260.048 46.3622 260.903 46.3622 261.566 46.3622 262.635 45.8279 263.32 45.422L263.32 42.2991ZM263.79 35.0714C263.191 35.0714 262.656 34.5796 262.656 33.9808 262.656 33.3821 263.191 32.8684 263.79 32.8684 264.389 32.8684 264.859 33.4032 264.859 33.9808 264.859 34.5581 264.367 35.0714 263.79 35.0714Z" fill="#FFFFFF" transform="matrix(1 0 0 1.00854 624.915 61.7946)"/><path d="M267.259 38.129C268.628 37.5732 269.698 36.1834 270.103 34.7076L270.617 34.7076 270.617 37.7017 273.825 37.7017 273.825 38.7711 270.617 38.7711 270.617 43.9682C270.574 45.486 271.087 46.1922 272.327 46.2136 272.968 46.2136 273.482 45.7644 273.974 45.2941L274.273 45.8069 272.99 47.1113C272.541 47.5606 271.857 47.4961 271.279 47.4961 270.06 47.4961 268.799 46.8759 268.799 44.8225L268.799 38.7707 267.259 38.7707 267.259 38.129 267.259 38.129Z" fill="#FFFFFF" transform="matrix(1 0 0 1.00854 624.915 61.7946)"/><path d="M285.822 41.7863 284.239 46.2338 286.335 46.5976 286.335 47.3243 280.989 47.3243 280.989 46.5976 282.806 46.2338 288.388 32.0768 289.478 32.0768 295.358 46.2338 297.176 46.5976 297.176 47.3243 290.995 47.3243 290.995 46.5976 293.091 46.2338 291.253 41.7863 285.822 41.7863ZM286.25 40.7168 290.805 40.7168 288.431 34.9636 286.25 40.7168Z" fill="#FFFFFF" transform="matrix(1 0 0 1.00854 624.915 61.7946)"/><path d="M305.681 38.129 303.692 37.7657 303.692 37.124 307.498 37.124 307.498 45.785 309.359 46.0418 309.359 46.5766C308.161 46.7905 307.005 47.1542 305.873 47.5176L305.681 47.3252 305.681 45.7425C304.354 46.5551 303.392 47.5597 302.023 47.5597 300.12 47.5597 298.88 46.726 298.88 44.7155L298.88 38.129 297.063 37.7657 297.063 37.124 300.698 37.124 300.698 44.2452C300.698 45.4641 301.512 46.1483 302.816 46.1483 303.991 46.1483 304.698 45.6991 305.682 45.1218L305.681 38.129 305.681 38.129Z" fill="#FFFFFF" transform="matrix(1 0 0 1.00854 624.915 61.7946)"/><path d="M312.818 46.7046C311.812 46.3197 310.806 45.3353 311.256 44.1812L313.201 43.2612C311.812 42.8974 310.914 41.7429 310.914 40.2886 310.914 38.0221 312.497 36.8882 314.678 36.8882 315.491 36.8882 316.303 37.145 317.072 37.3804L317.628 37.3804 319.788 37.2734C319.766 37.188 320.345 38.1715 319.511 38.4924 319.254 38.5993 318.291 38.4069 317.671 38.257 318.078 38.8128 318.249 39.369 318.249 40.0322 318.249 42.2982 316.218 43.5606 314.123 43.4111L313.716 43.6246 312.861 44.1593C312.925 45.5492 315.149 45.5492 316.09 45.5921 317.866 45.6776 319.833 46.1479 319.833 48.3294 319.833 51.0451 316.326 51.9003 314.209 51.9003 312.369 51.9003 309.931 51.2586 309.931 49.0136 309.931 47.6237 310.402 47.4738 310.979 47.3449L312.818 46.7046ZM318.25 48.8216C318.25 47.3248 316.004 47.0039 314.786 47.0039 313.502 47.0039 311.514 47.3248 311.514 49.0355 311.514 50.8321 313.289 51.2595 314.743 51.2595 316.175 51.2595 318.25 50.5113 318.25 48.8216ZM312.604 39.7332C312.604 41.0376 313.267 42.7698 314.806 42.7698 316.025 42.7698 316.581 41.5934 316.56 40.5454 316.538 39.3265 316.025 37.5299 314.486 37.5299 313.224 37.5303 312.604 38.5998 312.604 39.7332Z" fill="#FFFFFF" transform="matrix(1 0 0 1.00854 624.915 61.7946)"/><path d="M327.633 40.1606 326.885 40.1606C326.885 38.7913 326.158 37.6587 324.661 37.6587 323.571 37.6587 322.63 38.172 322.63 39.3484 322.63 41.7012 328.404 40.4174 328.404 44.1816 328.404 46.4477 326.437 47.5601 324.362 47.5601 323.272 47.5601 322.159 47.3462 321.176 46.8544L320.877 43.9033 321.71 43.9033C321.753 45.55 322.757 46.7905 324.47 46.7905 325.645 46.7905 326.8 46.2347 326.8 44.9517 326.8 42.1926 321.112 43.7972 321.112 39.8831 321.112 38.0015 322.844 36.889 324.619 36.889 325.774 36.889 326.779 37.1669 327.677 37.8941L327.633 40.1606Z" fill="#FFFFFF" transform="matrix(1 0 0 1.00854 624.915 61.7946)"/><path d="M330.773 47.6241 330.389 47.4532C330.496 45.9989 330.645 44.6524 330.645 43.2616L330.645 32.4411C330.068 32.1632 329.405 32.0562 328.785 32.0562L328.785 31.4145C329.812 31.2861 331.094 30.9442 331.972 30.5594L332.463 30.7093 332.463 44.4385C332.463 45.8498 333.277 46.9193 334.752 46.9193 336.997 46.9193 337.746 44.8018 337.746 42.4284 337.746 40.1404 336.954 38.3013 334.41 38.3013 333.939 38.3013 333.447 38.3867 332.998 38.5366L332.784 38.0663 334.516 36.9968C334.858 36.9539 335.179 36.8899 335.521 36.8899 338.152 36.8899 339.563 38.793 339.563 42.108 339.563 45.0372 338.002 47.5606 334.111 47.5606 333.319 47.5606 332.442 47.2397 331.758 46.8338L330.773 47.6241Z" fill="#FFFFFF" transform="matrix(1 0 0 1.00854 624.915 61.7946)"/><path d="M348.928 38.129 346.94 37.7657 346.94 37.124 350.745 37.124 350.745 45.785 352.606 46.0418 352.606 46.5766C351.409 46.7905 350.253 47.1542 349.121 47.5176L348.928 47.3252 348.928 45.7425C347.602 46.5551 346.641 47.5597 345.271 47.5597 343.368 47.5597 342.128 46.726 342.128 44.7155L342.128 38.129 340.311 37.7657 340.311 37.124 343.946 37.124 343.946 44.2452C343.946 45.4641 344.76 46.1483 346.064 46.1483 347.24 46.1483 347.946 45.6991 348.929 45.1218L348.928 38.129 348.928 38.129Z" fill="#FFFFFF" transform="matrix(1 0 0 1.00854 624.915 61.7946)"/><path d="M357.51 37.0385 357.51 39.7122 357.895 39.113C358.366 38.236 359.243 36.8036 360.375 36.8036 360.824 36.8036 361.06 36.9745 361.402 37.2314L361.124 38.8991 360.847 38.9631C360.612 38.7922 360.12 38.5568 359.842 38.5568 358.601 38.5568 357.511 40.7168 357.511 41.1016L357.511 46.3193 359.756 46.6831 359.756 47.3248 353.726 47.3248 353.726 46.6831 355.693 46.3193 355.693 38.7711C355.115 38.4937 354.452 38.3863 353.833 38.3863L353.833 37.7446C354.859 37.6162 356.143 37.2743 357.019 36.889L357.51 37.0385Z" fill="#FFFFFF" transform="matrix(1 0 0 1.00854 624.915 61.7946)"/><path d="M364.557 46.7046C363.552 46.3197 362.546 45.3353 362.996 44.1812L364.941 43.2612C363.551 42.8974 362.654 41.7429 362.654 40.2886 362.654 38.0221 364.236 36.8882 366.417 36.8882 367.23 36.8882 368.043 37.145 368.812 37.3804L369.368 37.3804 371.528 37.2734C371.506 37.188 372.084 38.1715 371.25 38.4924 370.993 38.5993 370.032 38.4069 369.411 38.257 369.818 38.8128 369.989 39.369 369.989 40.0322 369.989 42.2982 367.958 43.5606 365.862 43.4111L365.456 43.6246 364.601 44.1593C364.664 45.5492 366.888 45.5492 367.83 45.5921 369.605 45.6776 371.573 46.1479 371.573 48.3294 371.573 51.0451 368.065 51.9003 365.948 51.9003 364.109 51.9003 361.671 51.2586 361.671 49.0136 361.671 47.6237 362.142 47.4738 362.718 47.3449L364.557 46.7046ZM369.989 48.8216C369.989 47.3248 367.744 47.0039 366.526 47.0039 365.242 47.0039 363.254 47.3248 363.254 49.0355 363.254 50.8321 365.028 51.2595 366.483 51.2595 367.915 51.2595 369.989 50.5113 369.989 48.8216ZM364.344 39.7332C364.344 41.0376 365.006 42.7698 366.546 42.7698 367.765 42.7698 368.321 41.5934 368.3 40.5454 368.278 39.3265 367.765 37.5299 366.225 37.5299 364.964 37.5303 364.344 38.5998 364.344 39.7332Z" fill="#FFFFFF" transform="matrix(1 0 0 1.00854 624.915 61.7946)"/><path d="M181.086 55.8354 181.086 56.5622 179.012 56.9259C179.204 57.6741 179.418 58.4224 179.654 59.1714L182.262 67.448 185.555 56.9264 183.374 56.5626 183.374 55.8359 188.25 55.8359 188.25 56.5626 186.817 56.9264 182.305 70.933 181.193 70.933 177.708 59.8775 173.944 70.933 172.874 70.933 168.897 56.9264 167.25 56.5626 167.25 55.8359 173.003 55.8359 173.003 56.5626 171.014 56.9264 173.944 67.4905 176.596 59.3857C176.873 58.5516 177.151 57.7175 177.344 56.9264L175.313 56.5626 175.313 55.8359 181.086 55.8359Z" fill="#FFFFFF" transform="matrix(1 0 0 1.00854 624.915 61.7946)"/><path d="M188.417 70.7617 188.417 70.12 190.513 69.7562 190.513 62.2072C189.936 61.9293 189.272 61.8223 188.653 61.8223L188.653 61.1806C189.679 61.0522 190.962 60.7103 191.839 60.3255L192.33 60.4754 192.33 69.7562 194.426 70.12 194.426 70.7617 188.417 70.7617 188.417 70.7617ZM191.304 57.8026C190.77 57.8026 190.256 57.3318 190.256 56.7971 190.256 56.2413 190.706 55.6636 191.304 55.6636 191.924 55.6636 192.395 56.1984 192.395 56.7975 192.395 57.3748 191.86 57.8026 191.304 57.8026Z" fill="#FFFFFF" transform="matrix(1 0 0 1.00854 624.915 61.7946)"/><path d="M199.366 60.4758 199.366 63.1491 199.751 62.5503C200.222 61.6733 201.098 60.2409 202.231 60.2409 202.68 60.2409 202.916 60.4114 203.258 60.6687L202.981 62.3364 202.703 62.4004C202.467 62.2295 201.976 61.9941 201.698 61.9941 200.457 61.9941 199.367 64.1541 199.367 64.539L199.367 69.7566 201.613 70.1204 201.613 70.7621 195.582 70.7621 195.582 70.1204 197.549 69.7566 197.549 62.2076C196.972 61.9297 196.309 61.8228 195.689 61.8228L195.689 61.1811C196.715 61.0526 197.998 60.7108 198.875 60.3259L199.366 60.4758Z" fill="#FFFFFF" transform="matrix(1 0 0 1.00854 624.915 61.7946)"/><path d="M204.358 61.5663C205.727 61.0106 206.795 59.6202 207.202 58.1449L207.715 58.1449 207.715 61.139 210.923 61.139 210.923 62.208 207.715 62.208 207.715 67.4046C207.672 68.9229 208.185 69.6286 209.425 69.6505 210.067 69.6505 210.58 69.2012 211.072 68.7305L211.371 69.2438 210.088 70.5482C209.639 70.9974 208.955 70.933 208.378 70.933 207.159 70.933 205.897 70.3132 205.897 68.2598L205.897 62.2076 204.358 62.2076 204.358 61.5663 204.358 61.5663Z" fill="#FFFFFF" transform="matrix(1 0 0 1.00854 624.915 61.7946)"/><path d="M219.436 63.5979 218.687 63.5979C218.687 62.2291 217.96 61.0965 216.463 61.0965 215.373 61.0965 214.432 61.6093 214.432 62.7861 214.432 65.139 220.205 63.8552 220.205 67.6189 220.205 69.8855 218.238 70.9979 216.163 70.9979 215.073 70.9979 213.961 70.784 212.977 70.2922L212.678 67.3411 213.512 67.3411C213.555 68.9878 214.559 70.2282 216.27 70.2282 217.447 70.2282 218.601 69.6724 218.601 68.3891 218.601 65.6308 212.913 67.2345 212.913 63.3209 212.913 61.4392 214.645 60.3268 216.42 60.3268 217.575 60.3268 218.58 60.6042 219.478 61.3318L219.436 63.5979Z" fill="#FFFFFF" transform="matrix(1 0 0 1.00854 624.915 61.7946)"/><path d="M228.458 63.5979 228.18 63.3844C228.244 61.9731 228.202 61.096 226.597 61.096 223.818 61.096 223.604 63.6829 223.732 65.8648 223.903 67.9604 224.887 69.5861 227.175 69.5861 229.1 69.5861 229.506 68.8164 230.49 67.2766L231.003 67.576C230.725 68.0678 229.677 70.2492 229.078 70.5271 228.33 70.912 227.389 70.9979 226.555 70.9979 223.325 70.9979 221.808 69.0733 221.808 65.9512 221.808 62.8076 223.133 60.3268 226.64 60.3268 227.581 60.3268 229.164 60.6257 229.784 61.4177 230.212 61.9735 230.126 62.4228 230.061 63.064L228.458 63.5979Z" fill="#FFFFFF" transform="matrix(1 0 0 1.00854 624.915 61.7946)"/><path d="M235.098 54.1458 235.098 62.08C236.125 61.3314 237.129 60.6038 237.387 60.4969 237.6 60.4114 237.964 60.3264 238.178 60.3264 241.022 60.3264 241.834 61.5668 241.834 63.6834L241.834 69.757 243.652 70.1208 243.652 70.7625 238.199 70.7625 238.199 70.1208 240.016 69.757 240.016 65.3945C240.016 63.6409 240.08 61.7377 237.856 61.7377 236.851 61.7377 235.91 62.1436 235.098 62.7217L235.098 69.757 236.915 70.1208 236.915 70.7625 231.462 70.7625 231.462 70.1208 233.28 69.757 233.28 55.8784C232.702 55.6009 232.039 55.4935 231.419 55.4935L231.419 54.8519C232.446 54.7234 233.729 54.3811 234.606 53.9963L235.098 54.1458Z" fill="#FFFFFF" transform="matrix(1 0 0 1.00854 624.915 61.7946)"/><path d="M250.769 63.5979C250.769 61.952 250.235 61.4594 249.273 61.4594 247.883 61.4594 247.391 62.6569 247.456 63.7688 247.477 64.0257 247.285 64.0042 247.092 64.0467L245.809 64.3032 245.659 64.2177 245.744 62.8703C245.766 62.5065 246.664 62.0147 246.92 61.8653L249.443 60.4324C249.679 60.3036 249.956 60.3255 250.213 60.3255 251.582 60.3255 252.587 61.0737 252.587 62.9558L252.587 69.2004 254.34 69.5642 254.34 70.0774C253.25 70.2694 251.988 70.5903 250.833 70.997L250.683 70.8261 250.747 69.4572C249.678 70.2699 248.501 70.997 247.111 70.997 245.55 70.997 244.866 69.7141 244.866 68.88 244.866 67.1044 246.235 66.6341 247.197 66.3347 248.48 65.9288 249.677 65.48 250.767 65.1592L250.767 63.5975 250.769 63.5975ZM250.769 65.7364C248.802 66.7204 246.792 67.0408 246.792 68.5377 246.792 69.3073 247.498 69.7996 248.353 69.7996 249.016 69.7996 250.085 69.2648 250.769 68.8589L250.769 65.7364Z" fill="#FFFFFF" transform="matrix(1 0 0 1.00854 624.915 61.7946)"/><path d="M255.865 62.2076 255.865 61.1385 257.191 61.1385C257.191 56.947 258.774 53.9959 261.126 53.9959 261.597 53.9959 261.896 54.1243 262.11 54.2312L261.511 55.9213C260.911 55.4935 260.697 55.3222 260.078 55.3222 258.73 55.3222 258.773 57.3537 259.05 61.1385L261.638 61.1385 261.638 62.2076 259.029 62.2076 259.029 69.7566 261.125 70.1204 261.125 70.7621 255.394 70.7621 255.394 70.1204 257.211 69.7566 257.211 62.2076 255.865 62.2076Z" fill="#FFFFFF" transform="matrix(1 0 0 1.00854 624.915 61.7946)"/><path d="M262.935 61.5663C264.304 61.0106 265.373 59.6202 265.779 58.1449L266.292 58.1449 266.292 61.139 269.5 61.139 269.5 62.208 266.292 62.208 266.292 67.4046C266.249 68.9229 266.763 69.6286 268.002 69.6505 268.644 69.6505 269.157 69.2012 269.649 68.7305L269.948 69.2438 268.665 70.5482C268.216 70.9974 267.532 70.933 266.955 70.933 265.736 70.933 264.475 70.3132 264.475 68.2598L264.475 62.2076 262.935 62.2076 262.935 61.5663 262.935 61.5663Z" fill="#FFFFFF" transform="matrix(1 0 0 1.00854 624.915 61.7946)"/><path d="M278.013 63.5979 277.265 63.5979C277.265 62.2291 276.537 61.0965 275.041 61.0965 273.95 61.0965 273.009 61.6093 273.009 62.7861 273.009 65.139 278.783 63.8552 278.783 67.6189 278.783 69.8855 276.815 70.9979 274.741 70.9979 273.651 70.9979 272.538 70.784 271.555 70.2922L271.255 67.3411 272.089 67.3411C272.132 68.9878 273.137 70.2282 274.848 70.2282 276.024 70.2282 277.179 69.6724 277.179 68.3891 277.179 65.6308 271.491 67.2345 271.491 63.3209 271.491 61.4392 273.223 60.3268 274.998 60.3268 276.153 60.3268 277.158 60.6042 278.056 61.3318L278.013 63.5979Z" fill="#FFFFFF" transform="matrix(1 0 0 1.00854 624.915 61.7946)"/><path d="M283.233 61.5663 285.564 68.1103 288.43 60.5613 289.029 60.5613 291.83 68.1528 294.183 61.5663 292.345 61.203 292.345 60.5613 296.792 60.5613 296.792 61.203 295.38 61.5663 291.702 70.9974 290.996 70.9974 288.259 63.7263 285.415 70.9974 284.752 70.9974 281.267 61.5663 279.663 61.203 279.663 60.5613 285.073 60.5613 285.073 61.203 283.233 61.5663Z" fill="#FFFFFF" transform="matrix(1 0 0 1.00854 624.915 61.7946)"/><path d="M297.846 70.7617 297.846 70.12 299.941 69.7562 299.941 62.2072C299.364 61.9293 298.701 61.8223 298.081 61.8223L298.081 61.1806C299.108 61.0522 300.391 60.7103 301.267 60.3255L301.759 60.4754 301.759 69.7562 303.855 70.12 303.855 70.7617 297.846 70.7617 297.846 70.7617ZM300.732 57.8026C300.198 57.8026 299.685 57.3318 299.685 56.7971 299.685 56.2413 300.135 55.6636 300.732 55.6636 301.353 55.6636 301.823 56.1984 301.823 56.7975 301.823 57.3748 301.289 57.8026 300.732 57.8026Z" fill="#FFFFFF" transform="matrix(1 0 0 1.00854 624.915 61.7946)"/><path d="M311.893 63.5979 311.145 63.5979C311.145 62.2291 310.418 61.0965 308.921 61.0965 307.83 61.0965 306.889 61.6093 306.889 62.7861 306.889 65.139 312.663 63.8552 312.663 67.6189 312.663 69.8855 310.696 70.9979 308.622 70.9979 307.531 70.9979 306.419 70.784 305.435 70.2922L305.136 67.3411 305.97 67.3411C306.013 68.9878 307.017 70.2282 308.728 70.2282 309.905 70.2282 311.059 69.6724 311.059 68.3891 311.059 65.6308 305.371 67.2345 305.371 63.3209 305.371 61.4392 307.103 60.3268 308.879 60.3268 310.033 60.3268 311.038 60.6042 311.936 61.3318L311.893 63.5979Z" fill="#FFFFFF" transform="matrix(1 0 0 1.00854 624.915 61.7946)"/><path d="M321.027 63.5979 320.279 63.5979C320.279 62.2291 319.552 61.0965 318.054 61.0965 316.963 61.0965 316.023 61.6093 316.023 62.7861 316.023 65.139 321.797 63.8552 321.797 67.6189 321.797 69.8855 319.829 70.9979 317.755 70.9979 316.665 70.9979 315.552 70.784 314.569 70.2922L314.27 67.3411 315.103 67.3411C315.147 68.9878 316.151 70.2282 317.862 70.2282 319.038 70.2282 320.193 69.6724 320.193 68.3891 320.193 65.6308 314.505 67.2345 314.505 63.3209 314.505 61.4392 316.237 60.3268 318.012 60.3268 319.167 60.3268 320.172 60.6042 321.07 61.3318L321.027 63.5979Z" fill="#FFFFFF" transform="matrix(1 0 0 1.00854 624.915 61.7946)"/><path d="M325.111 64.4745C325.111 67.2758 326.202 69.5857 328.982 69.5857 330.286 69.5857 331.313 68.6446 332.147 67.7684L332.618 68.2392 330.115 70.7625C329.965 70.848 329.196 70.9979 328.105 70.9979 325.453 70.9979 323.357 69.0943 323.357 65.6303 323.357 62.2299 325.475 60.3268 328.105 60.3268 330.329 60.3268 331.997 61.8232 331.997 63.6198 331.997 64.4324 331.784 64.4754 331.143 64.4754L325.112 64.4754 325.112 64.4745ZM330.137 63.8333C330.222 62.2501 329.517 60.9676 327.784 60.9676 326.223 60.9676 325.261 62.4219 325.154 63.8333L330.137 63.8333Z" fill="#FFFFFF" transform="matrix(1 0 0 1.00854 624.915 61.7946)"/><path d="M336.811 69.7566 338.629 70.1204 338.629 70.7621 333.176 70.7621 333.176 70.1204 334.993 69.7566 334.993 62.2076C334.416 61.9297 333.752 61.8228 333.133 61.8228L333.133 61.1811C334.159 61.0526 335.442 60.7108 336.319 60.3259L336.811 60.4758 336.811 62.0796C337.838 61.331 338.842 60.6034 339.099 60.4964 339.313 60.411 339.677 60.3259 339.891 60.3259 342.735 60.3259 343.548 61.5663 343.548 63.6829L343.548 69.7566 345.365 70.1204 345.365 70.7621 339.912 70.7621 339.912 70.1204 341.728 69.7566 341.728 65.3941C341.728 63.6404 341.792 61.7369 339.569 61.7369 338.564 61.7369 337.623 62.1432 336.81 62.7209L336.811 69.7566 336.811 69.7566Z" fill="#FFFFFF" transform="matrix(1 0 0 1.00854 624.915 61.7946)"/><path d="M353.367 63.5979 352.619 63.5979C352.619 62.2291 351.892 61.0965 350.395 61.0965 349.304 61.0965 348.363 61.6093 348.363 62.7861 348.363 65.139 354.137 63.8552 354.137 67.6189 354.137 69.8855 352.17 70.9979 350.096 70.9979 349.005 70.9979 347.893 70.784 346.909 70.2922L346.61 67.3411 347.443 67.3411C347.487 68.9878 348.491 70.2282 350.203 70.2282 351.378 70.2282 352.533 69.6724 352.533 68.3891 352.533 65.6308 346.845 67.2345 346.845 63.3209 346.845 61.4392 348.577 60.3268 350.352 60.3268 351.507 60.3268 352.512 60.6042 353.41 61.3318L353.367 63.5979Z" fill="#FFFFFF" transform="matrix(1 0 0 1.00854 624.915 61.7946)"/><path d="M362.389 63.5979 362.111 63.3844C362.175 61.9731 362.133 61.096 360.529 61.096 357.748 61.096 357.534 63.6829 357.663 65.8648 357.834 67.9604 358.818 69.5861 361.106 69.5861 363.03 69.5861 363.437 68.8164 364.421 67.2766L364.934 67.576C364.656 68.0678 363.608 70.2492 363.01 70.5271 362.261 70.912 361.32 70.9979 360.486 70.9979 357.257 70.9979 355.738 69.0733 355.738 65.9512 355.738 62.8076 357.064 60.3268 360.572 60.3268 361.512 60.3268 363.095 60.6257 363.715 61.4177 364.143 61.9735 364.057 62.4228 363.992 63.064L362.389 63.5979Z" fill="#FFFFFF" transform="matrix(1 0 0 1.00854 624.915 61.7946)"/><path d="M369.029 54.1458 369.029 62.08C370.055 61.3314 371.06 60.6038 371.317 60.4969 371.53 60.4114 371.894 60.3264 372.108 60.3264 374.952 60.3264 375.765 61.5668 375.765 63.6834L375.765 69.757 377.583 70.1208 377.583 70.7625 372.13 70.7625 372.13 70.1208 373.947 69.757 373.947 65.3945C373.947 63.6409 374.011 61.7377 371.787 61.7377 370.782 61.7377 369.841 62.1436 369.029 62.7217L369.029 69.757 370.846 70.1208 370.846 70.7625 365.393 70.7625 365.393 70.1208 367.21 69.757 367.21 55.8784C366.633 55.6009 365.97 55.4935 365.35 55.4935L365.35 54.8519C366.377 54.7234 367.659 54.3811 368.536 53.9963L369.029 54.1458Z" fill="#FFFFFF" transform="matrix(1 0 0 1.00854 624.915 61.7946)"/><path d="M384.7 63.5979C384.7 61.952 384.165 61.4594 383.203 61.4594 381.813 61.4594 381.322 62.6569 381.386 63.7688 381.407 64.0257 381.215 64.0042 381.022 64.0467L379.739 64.3032 379.589 64.2177 379.674 62.8703C379.696 62.5065 380.594 62.0147 380.85 61.8653L383.374 60.4324C383.609 60.3036 383.887 60.3255 384.143 60.3255 385.513 60.3255 386.517 61.0737 386.517 62.9558L386.517 69.2004 388.271 69.5642 388.271 70.0774C387.18 70.2694 385.918 70.5903 384.764 70.997L384.613 70.8261 384.677 69.4572C383.608 70.2699 382.431 70.997 381.042 70.997 379.481 70.997 378.796 69.7141 378.796 68.88 378.796 67.1044 380.165 66.6341 381.128 66.3347 382.41 65.9288 383.608 65.48 384.698 65.1592L384.698 63.5975 384.7 63.5975ZM384.7 65.7364C382.733 66.7204 380.722 67.0408 380.722 68.5377 380.722 69.3073 381.428 69.7996 382.283 69.7996 382.946 69.7996 384.015 69.2648 384.7 68.8589L384.7 65.7364Z" fill="#FFFFFF" transform="matrix(1 0 0 1.00854 624.915 61.7946)"/><path d="M389.795 62.2076 389.795 61.1385 391.121 61.1385C391.121 56.947 392.704 53.9959 395.056 53.9959 395.527 53.9959 395.826 54.1243 396.04 54.2312L395.44 55.9213C394.842 55.4935 394.628 55.3222 394.007 55.3222 392.66 55.3222 392.703 57.3537 392.981 61.1385L395.568 61.1385 395.568 62.2076 392.959 62.2076 392.959 69.7566 395.055 70.1204 395.055 70.7621 389.324 70.7621 389.324 70.1204 391.141 69.7566 391.141 62.2076 389.795 62.2076Z" fill="#FFFFFF" transform="matrix(1 0 0 1.00854 624.915 61.7946)"/><path d="M396.865 61.5663C398.235 61.0106 399.304 59.6202 399.71 58.1449L400.223 58.1449 400.223 61.139 403.431 61.139 403.431 62.208 400.223 62.208 400.223 67.4046C400.179 68.9229 400.694 69.6286 401.933 69.6505 402.574 69.6505 403.088 69.2012 403.58 68.7305L403.879 69.2438 402.596 70.5482C402.147 70.9974 401.462 70.933 400.886 70.933 399.667 70.933 398.405 70.3132 398.405 68.2598L398.405 62.2076 396.865 62.2076 396.865 61.5663 396.865 61.5663Z" fill="#FFFFFF" transform="matrix(1 0 0 1.00854 624.915 61.7946)"/><path d="M408.762 54.1458 408.762 69.757 410.857 70.1208 410.857 70.7625 404.849 70.7625 404.849 70.1208 406.944 69.757 406.944 55.8784C406.367 55.6009 405.704 55.4935 405.084 55.4935L405.084 54.8519C406.111 54.7234 407.393 54.3811 408.27 53.9963L408.762 54.1458Z" fill="#FFFFFF" transform="matrix(1 0 0 1.00854 624.915 61.7946)"/><path d="M412.062 70.7617 412.062 70.12 414.158 69.7562 414.158 62.2072C413.58 61.9293 412.917 61.8223 412.297 61.8223L412.297 61.1806C413.325 61.0522 414.607 60.7103 415.484 60.3255L415.976 60.4754 415.976 69.7562 418.072 70.12 418.072 70.7617 412.062 70.7617 412.062 70.7617ZM414.948 57.8026C414.414 57.8026 413.901 57.3318 413.901 56.7971 413.901 56.2413 414.35 55.6636 414.948 55.6636 415.568 55.6636 416.039 56.1984 416.039 56.7975 416.04 57.3748 415.505 57.8026 414.948 57.8026Z" fill="#FFFFFF" transform="matrix(1 0 0 1.00854 624.915 61.7946)"/><path d="M425.498 63.5979 425.22 63.3844C425.284 61.9731 425.242 61.096 423.637 61.096 420.857 61.096 420.643 63.6829 420.772 65.8648 420.942 67.9604 421.926 69.5861 424.215 69.5861 426.139 69.5861 426.546 68.8164 427.53 67.2766L428.043 67.576C427.765 68.0678 426.717 70.2492 426.119 70.5271 425.37 70.912 424.429 70.9979 423.595 70.9979 420.365 70.9979 418.847 69.0733 418.847 65.9512 418.847 62.8076 420.173 60.3268 423.68 60.3268 424.621 60.3268 426.204 60.6257 426.823 61.4177 427.251 61.9735 427.166 62.4228 427.101 63.064L425.498 63.5979Z" fill="#FFFFFF" transform="matrix(1 0 0 1.00854 624.915 61.7946)"/><path d="M432.139 54.1458 432.139 62.08C433.166 61.3314 434.167 60.6038 434.424 60.4969 434.639 60.4114 435.004 60.3264 435.219 60.3264 438.062 60.3264 438.874 61.5668 438.874 63.6834L438.874 69.757 440.691 70.1208 440.691 70.7625 435.241 70.7625 435.241 70.1208 437.057 69.757 437.057 65.3945C437.057 63.6409 437.117 61.7377 434.897 61.7377 433.892 61.7377 432.951 62.1436 432.139 62.7217L432.139 69.757 433.956 70.1208 433.956 70.7625 428.502 70.7625 428.502 70.1208 430.318 69.757 430.318 55.8784C429.743 55.6009 429.079 55.4935 428.46 55.4935L428.46 54.8519C429.486 54.7234 430.769 54.3811 431.646 53.9963L432.139 54.1458Z" fill="#FFFFFF" transform="matrix(1 0 0 1.00854 624.915 61.7946)"/><path d="M443.105 64.4745C443.105 67.2758 444.196 69.5857 446.979 69.5857 448.28 69.5857 449.307 68.6446 450.14 67.7684L450.613 68.2392 448.109 70.7625C447.958 70.848 447.189 70.9979 446.098 70.9979 443.448 70.9979 441.352 69.0943 441.352 65.6303 441.352 62.2299 443.47 60.3268 446.098 60.3268 448.323 60.3268 449.994 61.8232 449.994 63.6198 449.994 64.4324 449.779 64.4754 449.139 64.4754L443.105 64.4754 443.105 64.4745ZM448.13 63.8333C448.216 62.2501 447.512 60.9676 445.781 60.9676 444.217 60.9676 443.255 62.4219 443.148 63.8333L448.13 63.8333Z" fill="#FFFFFF" transform="matrix(1 0 0 1.00854 624.915 61.7946)"/><path d="M176.425 86.5336 172.105 86.5336 172.105 92.5857 174.414 92.9495 174.414 93.6763 167.7 93.6763 167.7 92.9495 170.009 92.5857 170.009 79.8401 167.7 79.4768 167.7 78.7496 177.921 78.7496 178.178 82.1711 177.451 82.1711 176.938 79.9471 172.105 79.9471 172.105 85.4645 176.403 85.4645 176.809 83.8612 177.451 83.8612C177.323 85.0157 177.323 87.0262 177.451 88.1811L176.809 88.1811 176.425 86.5336Z" fill="#FFFFFF" transform="matrix(1 0 0 1.00854 624.915 61.7946)"/><path d="M184.763 86.5121C184.763 84.8658 184.228 84.3736 183.266 84.3736 181.876 84.3736 181.384 85.571 181.449 86.683 181.47 86.9403 181.278 86.9188 181.085 86.9609L179.802 87.2173 179.652 87.1323 179.738 85.7845C179.759 85.4207 180.657 84.9289 180.914 84.7795L183.437 83.3466C183.672 83.2182 183.95 83.2397 184.207 83.2397 185.576 83.2397 186.581 83.9883 186.581 85.87L186.581 92.1146 188.334 92.4784 188.334 92.9916C187.244 93.184 185.982 93.5049 184.827 93.9112L184.677 93.7407 184.741 92.3714C183.672 93.1845 182.495 93.9112 181.105 93.9112 179.544 93.9112 178.86 92.6287 178.86 91.7942 178.86 90.019 180.229 89.5487 181.191 89.2493 182.474 88.843 183.671 88.3942 184.762 88.0733L184.763 86.5121 184.763 86.5121ZM184.763 88.6506C182.795 89.6346 180.785 89.955 180.785 91.4518 180.785 92.2215 181.491 92.7137 182.346 92.7137 183.009 92.7137 184.078 92.1794 184.763 91.7735L184.763 88.6506 184.763 88.6506Z" fill="#FFFFFF" transform="matrix(1 0 0 1.00854 624.915 61.7946)"/><path d="M193.233 77.0599 193.233 92.6708 195.051 93.0346 195.051 93.6763 189.598 93.6763 189.598 93.0346 191.415 92.6708 191.415 78.7921C190.838 78.5147 190.175 78.4073 189.555 78.4073L189.555 77.7656C190.581 77.6372 191.864 77.2953 192.741 76.9105L193.233 77.0599ZM200.761 83.4755 200.761 84.1171 198.857 84.4805 195.521 88.0519C197.253 89.6986 198.814 91.5377 200.825 92.8636 201.06 93.0135 201.21 93.0135 201.467 93.0561L201.467 93.6758C200.633 93.6758 199.798 93.7398 198.986 93.8262L193.64 88.8005 193.64 88.5432 197.318 84.4801 195.414 84.1167 195.414 83.475 200.761 83.475 200.761 83.4755Z" fill="#FFFFFF" transform="matrix(1 0 0 1.00854 624.915 61.7946)"/><path d="M210.745 84.4805 208.757 84.1171 208.757 83.4755 212.563 83.4755 212.563 92.1365 214.423 92.3937 214.423 92.9281C213.226 93.142 212.071 93.5057 210.938 93.8691L210.745 93.6767 210.745 92.094C209.419 92.9066 208.457 93.9112 207.088 93.9112 205.185 93.9112 203.945 93.0775 203.945 91.067L203.945 84.4805 202.127 84.1171 202.127 83.4755 205.763 83.4755 205.763 90.5967C205.763 91.8156 206.576 92.4998 207.88 92.4998 209.056 92.4998 209.762 92.0506 210.746 91.4733L210.746 84.4805 210.745 84.4805Z" fill="#FFFFFF" transform="matrix(1 0 0 1.00854 624.915 61.7946)"/><path d="M219.505 77.0599 219.505 92.6708 221.601 93.0346 221.601 93.6763 215.591 93.6763 215.591 93.0346 217.686 92.6708 217.686 78.7921C217.109 78.5147 216.446 78.4073 215.826 78.4073L215.826 77.7656C216.852 77.6372 218.135 77.2953 219.012 76.9105L219.505 77.0599Z" fill="#FFFFFF" transform="matrix(1 0 0 1.00854 624.915 61.7946)"/><path d="M221.939 84.4805C223.307 83.9247 224.376 82.5349 224.782 81.0591L225.296 81.0591 225.296 84.0532 228.503 84.0532 228.503 85.1226 225.296 85.1226 225.296 90.3197C225.253 91.8375 225.766 92.5436 227.006 92.5651 227.648 92.5651 228.161 92.1159 228.653 91.6455L228.952 92.1584 227.669 93.4628C227.22 93.9121 226.535 93.8476 225.958 93.8476 224.739 93.8476 223.478 93.2274 223.478 91.174L223.478 85.1222 221.939 85.1222 221.939 84.4805Z" fill="#FFFFFF" transform="matrix(1 0 0 1.00854 624.915 61.7946)"/><path d="M236.159 86.5121C236.159 84.8658 235.624 84.3736 234.662 84.3736 233.272 84.3736 232.78 85.571 232.845 86.683 232.866 86.9403 232.674 86.9188 232.481 86.9609L231.198 87.2173 231.048 87.1323 231.133 85.7845C231.154 85.4207 232.053 84.9289 232.309 84.7795L234.833 83.3466C235.068 83.2182 235.346 83.2397 235.602 83.2397 236.971 83.2397 237.976 83.9883 237.976 85.87L237.976 92.1146 239.73 92.4784 239.73 92.9916C238.639 93.184 237.377 93.5049 236.223 93.9112L236.072 93.7407 236.136 92.3714C235.067 93.1845 233.89 93.9112 232.501 93.9112 230.939 93.9112 230.255 92.6287 230.255 91.7942 230.255 90.019 231.624 89.5487 232.586 89.2493 233.869 88.843 235.067 88.3942 236.157 88.0733L236.159 86.5121 236.159 86.5121ZM232.909 79.2199C233.508 79.2199 234.021 79.7332 234.021 80.3323 234.021 80.9315 233.508 81.4233 232.909 81.4233 232.31 81.4233 231.818 80.9311 231.818 80.3323 231.818 79.7332 232.309 79.2199 232.909 79.2199ZM236.159 88.6506C234.191 89.6346 232.181 89.955 232.181 91.4518 232.181 92.2215 232.887 92.7137 233.742 92.7137 234.405 92.7137 235.474 92.1794 236.159 91.7735L236.159 88.6506ZM236.629 81.4224C236.031 81.4224 235.496 80.9306 235.496 80.3319 235.496 79.7332 236.031 79.2195 236.629 79.2195 237.229 79.2195 237.699 79.7542 237.699 80.3319 237.698 80.9092 237.207 81.4224 236.629 81.4224Z" fill="#FFFFFF" transform="matrix(1 0 0 1.00854 624.915 61.7946)"/><path d="M240.099 84.4805C241.467 83.9247 242.536 82.5349 242.942 81.0591L243.456 81.0591 243.456 84.0532 246.663 84.0532 246.663 85.1226 243.456 85.1226 243.456 90.3197C243.412 91.8375 243.926 92.5436 245.165 92.5651 245.807 92.5651 246.32 92.1159 246.812 91.6455L247.111 92.1584 245.829 93.4628C245.379 93.9121 244.695 93.8476 244.118 93.8476 242.899 93.8476 241.638 93.2274 241.638 91.174L241.638 85.1222 240.099 85.1222 240.099 84.4805Z" fill="#FFFFFF" transform="matrix(1 0 0 1.00854 624.915 61.7946)"/></g></svg>