<?xml version="1.0" encoding="UTF-8" standalone="no"?>
<!DOCTYPE svg PUBLIC "-//W3C//DTD SVG 1.1//EN" "http://www.w3.org/Graphics/SVG/1.1/DTD/svg11.dtd">
<svg width="100%" height="100%" viewBox="0 0 486 303" version="1.1" xmlns="http://www.w3.org/2000/svg" xmlns:xlink="http://www.w3.org/1999/xlink" xml:space="preserve" xmlns:serif="http://www.serif.com/" style="fill-rule:evenodd;clip-rule:evenodd;stroke-linejoin:round;stroke-miterlimit:2;">
    <g transform="matrix(1,0,0,1,-4.79467,-106.914)">
        <g transform="matrix(0.330667,0,0,0.341333,0,0)">
            <path d="M1120,605.5L1120,1189L984.857,1189L984.857,605.5L1120,605.5ZM157,605L157,990.5L14.5,990.5L14.5,605L157,605ZM494,605.5L494,991L357,991L357,605.5L494,605.5ZM14.5,990.5L157,990.5C157,1048.49 188.045,1096.98 254.25,1096.98C320.455,1096.98 356.981,1048.99 356.981,991L494,991C494,1106.98 440.034,1198.74 254.25,1198.5C67.319,1198.26 14.5,1106.48 14.5,990.5ZM494,605.5L715,971L715,605.155L849,605.154L849,1188.75L712,1188.72L494,834L494,605.5ZM920.68,313.224C977.019,313.224 1022.76,359 1022.76,415.385C1022.76,471.769 977.019,517.545 920.68,517.545C864.341,517.545 818.601,471.769 818.601,415.385C818.601,359 864.341,313.224 920.68,313.224ZM1120.07,1189L1120.07,1071L1226.39,1005.78L1120.07,834C1120.07,834 1119.91,681.66 1120.07,605L1484,1189L1339.63,1189L1279.48,1092L1120.07,1189Z"/>
        </g>
    </g>
</svg>
