<?xml version="1.0" encoding="UTF-8" standalone="no"?>
<!DOCTYPE svg PUBLIC "-//W3C//DTD SVG 1.1//EN" "http://www.w3.org/Graphics/SVG/1.1/DTD/svg11.dtd">
<svg width="100%" height="100%" viewBox="0 0 325 255" version="1.1" xmlns="http://www.w3.org/2000/svg" xmlns:xlink="http://www.w3.org/1999/xlink" xml:space="preserve" xmlns:serif="http://www.serif.com/" style="fill-rule:evenodd;clip-rule:evenodd;stroke-linejoin:round;stroke-miterlimit:14.3356;">
    <path d="M32.9,9.5L32.9,228.1" style="fill:none;"/>
    <path d="M32.9,9.5L32.9,228.1" style="fill:none;fill-rule:nonzero;stroke:rgb(66,66,66);stroke-width:3px;"/>
    <path d="M32.9,228.1L299.4,228.1" style="fill:none;"/>
    <path d="M32.9,228.1L299.4,228.1" style="fill:none;fill-rule:nonzero;stroke:rgb(66,66,66);stroke-width:3px;"/>
    <path d="M32.9,227.6C34.3,219.9 36.1,198 41.2,181.3C46.3,164.6 55.5,141 63.5,127.4C71.5,113.8 78.9,108.8 89.4,99.7C99.9,90.6 114.8,81.3 126.7,72.5C138.6,63.7 151.2,53.4 160.9,46.8C170.7,40.2 174.5,37.6 185.3,32.7C196.1,27.8 206.7,21.2 225.7,17.6C244.7,14 287,12.1 299.3,11.1" style="fill-opacity:0;"/>
    <g transform="matrix(1,0,0,1,145.639,243.991)">
        <text x="0px" y="0px" style="font-family:'Arial-BoldMT', 'Arial', sans-serif;font-weight:700;font-size:11px;">Recall</text>
    </g>
    <rect x="0" y="38.7" width="27.7" height="114.4" style="fill-opacity:0;"/>
    <g transform="matrix(0,-1,1,0,17.3099,139.316)">
        <text x="0px" y="0px" style="font-family:'Arial-BoldMT', 'Arial', sans-serif;font-weight:700;font-size:13px;">Precision</text>
    </g>
    <rect x="0" y="0" width="27.7" height="22" style="fill-opacity:0;"/>
    <g transform="matrix(0,-1,1,0,17.3101,15.2427)">
        <text x="0px" y="0px" style="font-family:'Arial-BoldMT', 'Arial', sans-serif;font-weight:700;font-size:11px;">1</text>
    </g>
    <g transform="matrix(1,0,0,1,-136.047,-7.32742)">
        <path d="M207.4,43.3C207.4,38.1 211.7,33.8 216.9,33.8L226.5,33.8L221.7,21.7L255.1,33.8L312.3,33.8C314.8,33.8 317.2,34.8 319,36.6C320.8,38.4 321.8,40.8 321.8,43.3L321.8,81.4C321.8,86.6 317.5,90.9 312.3,90.9L216.9,90.9C211.7,90.9 207.4,86.6 207.4,81.4L207.4,43.3Z" style="fill:rgb(255,242,204);"/>
    </g>
    <rect x="0" y="216" width="27.7" height="22" style="fill-opacity:0;"/>
    <g transform="matrix(-1,0,0,1,332.2,0)">
        <path d="M32.9,227.6C34.3,219.9 36.1,198 41.2,181.3C46.3,164.6 55.5,141 63.5,127.4C71.5,113.8 78.9,108.8 89.4,99.7C99.9,90.6 114.8,81.3 126.7,72.5C138.6,63.7 151.2,53.4 160.9,46.8C170.7,40.2 174.5,37.6 185.3,32.7C196.1,27.8 206.7,21.2 225.7,17.6C244.7,14 287,12.1 299.3,11.1" style="fill:none;fill-rule:nonzero;stroke:rgb(17,85,204);stroke-width:3px;stroke-dasharray:12,9;"/>
    </g>
    <g transform="matrix(0,-1,1,0,17.3101,231.243)">
        <text x="0px" y="0px" style="font-family:'Arial-BoldMT', 'Arial', sans-serif;font-weight:700;font-size:11px;">0</text>
    </g>
    <rect x="20.9" y="231.1" width="22" height="27.7" style="fill-opacity:0;"/>
    <g transform="matrix(1,0,0,1,27.6083,248.451)">
        <text x="0px" y="0px" style="font-family:'Arial-BoldMT', 'Arial', sans-serif;font-weight:700;font-size:11px;">0</text>
    </g>
    <rect x="284.9" y="231.1" width="22" height="27.7" style="fill-opacity:0;"/>
    <g transform="matrix(1,0,0,1,291.608,248.451)">
        <text x="0px" y="0px" style="font-family:'Arial-BoldMT', 'Arial', sans-serif;font-weight:700;font-size:11px;">1</text>
    </g>
    <g transform="matrix(-1,0,0,1,317.741,-13.3813)">
        <path d="M90.1,131.7C90.1,127.1 93.8,123.4 98.4,123.4L203.4,123.4C205.6,123.4 207.7,124.3 209.3,125.8C210.9,127.4 211.7,129.5 211.7,131.7L211.7,165.1C211.7,169.7 208,173.4 203.4,173.4L98.4,173.4C93.8,173.4 90.1,169.7 90.1,165.1L90.1,144.2L69.2,124.7L90.1,131.7Z" style="fill:rgb(255,242,204);"/>
    </g>
    <g transform="matrix(-1,0,0,1,317.741,-13.3813)">
        <path d="M90.1,131.7C90.1,127.1 93.8,123.4 98.4,123.4L203.4,123.4C205.6,123.4 207.7,124.3 209.3,125.8C210.9,127.4 211.7,129.5 211.7,131.7L211.7,165.1C211.7,169.7 208,173.4 203.4,173.4L98.4,173.4C93.8,173.4 90.1,169.7 90.1,165.1L90.1,144.2L69.2,124.7L90.1,131.7Z" style="fill:none;fill-rule:nonzero;stroke:rgb(66,66,66);stroke-width:0.75px;"/>
    </g>
    <g transform="matrix(1,0,0,1,-136.047,-7.32742)">
        <path d="M207.4,43.3C207.4,38.1 211.7,33.8 216.9,33.8L226.5,33.8L221.7,21.7L255.1,33.8L312.3,33.8C314.8,33.8 317.2,34.8 319,36.6C320.8,38.4 321.8,40.8 321.8,43.3L321.8,81.4C321.8,86.6 317.5,90.9 312.3,90.9L216.9,90.9C211.7,90.9 207.4,86.6 207.4,81.4L207.4,43.3Z" style="fill:none;fill-rule:nonzero;stroke:rgb(66,66,66);stroke-width:0.75px;"/>
    </g>
    <g transform="matrix(1,0,0,1,85.3841,42.7396)">
        <g>
            <text x="0px" y="0px" style="font-family:'ArialMT', 'Arial', sans-serif;font-size:11px;">Precision vs. Recall</text>
            <g transform="matrix(1,0,0,1,0,13.2)">
                <text x="0px" y="0px" style="font-family:'ArialMT', 'Arial', sans-serif;font-size:11px;">at one decision</text>
            </g>
            <g transform="matrix(1,0,0,1,0,26.4)">
                <text x="0px" y="0px" style="font-family:'ArialMT', 'Arial', sans-serif;font-size:11px;">threshold</text>
            </g>
        </g>
    </g>
    <g transform="matrix(1,0,0,1,15.7773,-13.3813)">
        <rect x="99.3" y="132" width="103" height="58.5" style="fill:none;"/>
    </g>
    <g transform="matrix(1,0,0,1,99.2579,139.876)">
        <g transform="matrix(1,0,0,1,15.7773,-13.3813)">
            <text x="0px" y="0px" style="font-family:'ArialMT', 'Arial', sans-serif;font-size:11px;">Precision vs. Recall</text>
        </g>
        <g transform="matrix(1,0,0,1,15.7773,-0.181307)">
            <text x="0px" y="0px" style="font-family:'ArialMT', 'Arial', sans-serif;font-size:11px;">at another decision</text>
        </g>
        <g transform="matrix(1,0,0,1,15.7773,13.0187)">
            <text x="0px" y="0px" style="font-family:'ArialMT', 'Arial', sans-serif;font-size:11px;">threshold</text>
        </g>
    </g>
</svg>
